<?xml version="1.0" encoding="utf-8"?>
<!-- Generator: Adobe Illustrator 26.0.1, SVG Export Plug-In . SVG Version: 6.00 Build 0)  -->
<svg version="1.0" id="Layer_1" xmlns="http://www.w3.org/2000/svg" xmlns:xlink="http://www.w3.org/1999/xlink" x="0px" y="0px"
	 viewBox="0 0 1000 1000" style="enable-background:new 0 0 1000 1000;" xml:space="preserve">
<style type="text/css">
	.st0{fill:#FFFFFF;}
</style>
<path class="st0" d="M829.39,364.26l-15.32,463.39c-1.3,39.69-18.04,77.3-46.64,104.87c-28.61,27.56-66.83,42.9-106.57,42.76H369.74
	c-39.71,0.14-77.92-15.18-106.52-42.71c-28.6-27.53-45.35-65.11-46.69-104.77l-15.32-463.54c-0.34-10.15,3.38-20.02,10.33-27.43
	c6.95-7.42,16.56-11.77,26.71-12.11c10.16-0.33,20.03,3.38,27.45,10.32c7.42,6.94,11.78,16.54,12.11,26.69l15.32,463.5
	c0.76,19.79,9.17,38.51,23.45,52.23c14.28,13.73,33.34,21.39,53.15,21.37h291.11c19.84,0.01,38.92-7.67,53.2-21.42
	c14.29-13.76,22.68-32.52,23.4-52.33l15.32-463.35c0.34-10.15,4.69-19.75,12.11-26.69c7.42-6.94,17.3-10.65,27.45-10.32
	c10.16,0.34,19.77,4.69,26.71,12.11C826.01,344.24,829.72,354.11,829.39,364.26z M880.06,210.05c0,10.15-4.04,19.89-11.22,27.06
	c-7.18,7.18-16.93,11.21-27.08,11.21H188.88c-10.16,0-19.9-4.03-27.08-11.21c-7.18-7.18-11.22-16.91-11.22-27.06
	c0-10.15,4.04-19.89,11.22-27.06c7.18-7.18,16.93-11.21,27.08-11.21h118.74c12.14,0.03,23.85-4.45,32.86-12.57
	c9.01-8.12,14.68-19.3,15.9-31.37c2.83-28.3,16.1-54.54,37.23-73.61c21.13-19.06,48.6-29.58,77.07-29.51h89.25
	c28.47-0.07,55.94,10.44,77.07,29.51c21.13,19.06,34.4,45.3,37.23,73.61c1.22,12.07,6.88,23.25,15.9,31.37
	c9.01,8.12,20.73,12.6,32.86,12.57h118.74c10.16,0,19.9,4.03,27.09,11.21c7.18,7.18,11.22,16.91,11.22,27.06H880.06z M422.87,171.78
	H607.8c-5.03-11.49-8.33-23.67-9.77-36.13c-0.95-9.43-5.37-18.18-12.4-24.55c-7.03-6.36-16.18-9.89-25.67-9.9h-89.25
	c-9.49,0.01-18.64,3.54-25.67,9.9c-7.03,6.36-11.45,15.11-12.4,24.55c-1.45,12.46-4.76,24.64-9.81,36.13H422.87z M461.44,751.67
	V425.77c0-10.15-4.04-19.89-11.22-27.06c-7.18-7.18-16.93-11.21-27.08-11.21c-10.16,0-19.9,4.03-27.09,11.21
	c-7.18,7.18-11.22,16.91-11.22,27.06v326.06c0,10.15,4.04,19.89,11.22,27.06c7.18,7.18,16.93,11.21,27.09,11.21
	c10.16,0,19.9-4.03,27.08-11.21c7.18-7.18,11.22-16.91,11.22-27.06V751.67z M645.84,751.67V425.77c0-10.15-4.04-19.89-11.22-27.06
	c-7.18-7.18-16.93-11.21-27.08-11.21c-10.16,0-19.9,4.03-27.09,11.21c-7.18,7.18-11.22,16.91-11.22,27.06v326.06
	c0,10.15,4.04,19.89,11.22,27.06c7.18,7.18,16.93,11.21,27.09,11.21c10.16,0,19.9-4.03,27.08-11.21
	c7.18-7.18,11.22-16.91,11.22-27.06V751.67z"/>
</svg>
