<?xml version="1.0" encoding="utf-8"?>
<!-- Generator: Adobe Illustrator 26.0.1, SVG Export Plug-In . SVG Version: 6.00 Build 0)  -->
<svg version="1.1" id="Layer_1" xmlns="http://www.w3.org/2000/svg" xmlns:xlink="http://www.w3.org/1999/xlink" x="0px" y="0px"
	 viewBox="0 0 1000 1000" style="enable-background:new 0 0 1000 1000;" xml:space="preserve">
<style type="text/css">
	.st0{fill:#040404;}
	.st1{fill:url(#SVGID_1_);}
	.st2{fill:url(#SVGID_00000061459372961745634550000012065092737368746641_);}
	.st3{fill:url(#SVGID_00000147187871147723841480000000427539168714666680_);}
	.st4{fill:url(#SVGID_00000118383420415550226860000017208025287408187065_);}
	.st5{fill:#FFFFFF;}
	.st6{fill:url(#SVGID_00000028282676157154817200000003183644800003474345_);}
	.st7{fill:url(#SVGID_00000178922432922471437800000005673143450748463493_);}
	.st8{fill:#231F20;}
	.st9{fill:url(#SVGID_00000179647127170707923280000000764175577063816638_);}
	.st10{fill:url(#SVGID_00000080890009017879759920000013828657401187573940_);}
	.st11{fill:url(#SVGID_00000032639056926129499030000003683899924766541955_);}
</style>
<path class="st0" d="M731.4,239.1c0-8.1-4.8-15.2-11.5-18.6c5.4-3.7,9-10,9-17.2c0-10.6-7.8-19.2-17.9-20.6c4-3.8,6.6-9.2,6.6-15.2
	c0-10.1-7.4-18.6-16.9-20.4c2.5-3.4,4-7.7,4-12.3c0-11.5-9.4-20.9-20.9-20.9c-0.6,0-1.2,0-1.8,0.2c1.5-2.9,2.5-6.3,2.5-9.8
	c0-11.2-8.9-20.4-19.9-20.7c0.2-1.2,0.3-2.3,0.3-3.5c0-11.5-9.4-20.9-20.9-20.9c-2,0-3.8,0.3-5.7,0.8c-0.9-10.6-9.8-18.9-20.7-18.9
	c-2.9,0-5.7,0.6-8.1,1.7c-2.6-8.4-10.6-14.6-19.8-14.6c-4.4,0-8.4,1.4-11.8,3.7c-2.1-9.2-10.4-16.1-20.2-16.1
	c-6.6,0-12.6,3.1-16.4,8c-3.1-7.7-10.6-13.2-19.3-13.2c-6.3,0-12,2.8-15.8,7.2c-3.8-4.1-9.2-6.7-15.3-6.7c-7.2,0-13.6,3.7-17.3,9.4
	c-3.7-3.5-8.7-5.7-14.3-5.7c-9,0-16.9,5.8-19.6,14c-3.5-2.6-7.8-4.1-12.4-4.1c-8.4,0-15.8,5.1-19,12.4c-2-0.6-4.1-1.1-6.3-1.1
	c-11.5,0-20.7,9.2-20.9,20.7c-2.5-0.9-4.9-1.5-7.7-1.5c-11.3,0-20.6,9-20.7,20.2c-11,0.6-19.6,9.7-19.6,20.7c0,1.5,0.2,3.1,0.5,4.6
	c-11,0.6-19.6,9.7-19.6,20.7c0,4,1.1,7.7,3.1,10.7h-0.3c-11.5,0-20.9,9.4-20.9,20.9c0,5.5,2.1,10.4,5.7,14.3
	c-8.6,2.5-15,10.4-15,19.9c0,6.3,2.9,12.1,7.4,15.8c-7.1,3.4-12,10.4-12,18.9c0,8.4,5.1,15.6,12.3,18.9c-5.2,3.8-8.6,9.8-8.6,16.9
	c0,8.7,5.4,16.1,12.9,19.2c-2.6,3.5-4.1,7.7-4.1,12.4c0,10.4,7.7,19,17.5,20.6c-3.2,3.7-5.4,8.6-5.4,13.8c0,11.3,9.2,20.6,20.6,20.9
	c-1.2,2.8-2,5.7-2,8.9c0,11.5,9.4,20.9,20.9,20.9c0.9,0,1.7,0,2.5-0.2c-0.3,1.5-0.6,3.2-0.6,4.8c0,11.5,9.4,20.9,20.9,20.9
	c5.4,0,10.3-2,14-5.4c34,25.6,76.4,40.6,122.2,40.6c37.9,0,73.5-10.4,103.8-28.4c3.4,2.3,7.4,3.5,11.7,3.5c9.2,0,16.9-6,19.6-14.1
	c1.7,0.5,3.4,0.6,5.2,0.6c11.5,0,20.9-9.4,20.9-20.9c0-0.9,0-1.7-0.2-2.6c1.5,0.3,3.1,0.6,4.8,0.6c11.5,0,20.9-9.4,20.9-20.9
	c0-3.4-0.8-6.6-2.3-9.4c10.6-1.1,18.9-9.8,18.9-20.7c0-2.6-0.5-4.9-1.4-7.2c7.5-3.2,12.7-10.6,12.7-19.2c0-4.4-1.4-8.6-3.8-12
	c6.9-3.4,11.5-10.4,11.5-18.6c0-3.8-1.1-7.4-2.9-10.6C728.2,251.8,731.4,245.8,731.4,239.1z"/>
<linearGradient id="SVGID_1_" gradientUnits="userSpaceOnUse" x1="164.6948" y1="784.3939" x2="144.5035" y2="783.3594" gradientTransform="matrix(1 0 0 -1 194 1104)">
	<stop  offset="0" style="stop-color:#FEC797"/>
	<stop  offset="1" style="stop-color:#FFD9A9"/>
</linearGradient>
<path class="st1" d="M383.8,268.5l-15-4c-16.1-2.3-26.4,10.1-22.9,31c3.1,18.9,9,35,17.2,57.2c9.2,25.2,27.8,20.1,27.8,20.1
	L383.8,268.5z"/>
<linearGradient id="SVGID_00000042701739322420953180000015305806502604111538_" gradientUnits="userSpaceOnUse" x1="441.2331" y1="783.1274" x2="470.2253" y2="775.3622" gradientTransform="matrix(1 0 0 -1 194 1104)">
	<stop  offset="0" style="stop-color:#FEC797"/>
	<stop  offset="1" style="stop-color:#FFD9A9"/>
</linearGradient>
<path style="fill:url(#SVGID_00000042701739322420953180000015305806502604111538_);" d="M619.2,268.5l15-4
	c16-2.3,26.4,10.1,22.9,31c-3.1,18.9-9,35-17.2,57.2c-9.2,25.2-27.8,20.1-27.8,20.1L619.2,268.5z"/>
<linearGradient id="SVGID_00000135677469051231832780000010934344192690006422_" gradientUnits="userSpaceOnUse" x1="306.3837" y1="679.2908" x2="306.3837" y2="470.9118" gradientTransform="matrix(1 0 0 -1 194 1104)">
	<stop  offset="0" style="stop-color:#FEC797"/>
	<stop  offset="1" style="stop-color:#FFD9A9"/>
</linearGradient>
<path style="fill:url(#SVGID_00000135677469051231832780000010934344192690006422_);" d="M864.1,824.6l-24.4-149.7
	c-8.6-42.6-43.7-76.4-88.5-84.7l-143.4-44.9c-14.3-2.1-25.5-16.9-25.6-32.2l-3.5-70.9H423.3l-3.7,73.8
	c-0.8,14.4-11.5,26.4-25.8,28.7l-142.9,50.1c-44.8,8.3-79.9,41.9-88.5,84.7l-25.8,144.2C227.9,823.5,772.4,824.6,864.1,824.6z"/>
<linearGradient id="SVGID_00000122685583266268149400000009780740157351821195_" gradientUnits="userSpaceOnUse" x1="308.5328" y1="868.7791" x2="308.5328" y2="713.4289" gradientTransform="matrix(1 0 0 -1 194 1104)">
	<stop  offset="0" style="stop-color:#FEC797"/>
	<stop  offset="1" style="stop-color:#FFD9A9"/>
</linearGradient>
<path style="fill:url(#SVGID_00000122685583266268149400000009780740157351821195_);" d="M502,156.2l-16.3,0.2
	c-59.4,0.3-107.4,48.5-107.4,107.8v128.1c0,16,6.1,31.3,17.2,42.8l38,39.6c11,11.3,26.2,17.9,42,17.9h53.8c15.8,0,31.1-6.4,42-17.9
	l38-39.6c11-11.5,17.2-26.8,17.2-42.8V264.2c0-59.4-48-107.7-107.4-107.8L502,156.2z"/>
<path class="st5" d="M756.7,591.8l-147.5-46.3c-10,23.8-36.2,57.8-103.8,57.8c-70.4,0-92.8-38.8-99.8-63.2
	c-3.5,2.3-7.4,3.8-11.7,4.6l-150.6,48c-44.8,8.3-79.9,41.9-88.5,84.7l-17.9,146.5h453c127,0,235.9,0.8,273.1,0.8l-17.8-148.1
	C836.6,633.7,801.5,600.1,756.7,591.8z"/>
<linearGradient id="SVGID_00000072968910018604911690000012503908715055898535_" gradientUnits="userSpaceOnUse" x1="500.6897" y1="697.9293" x2="500.6897" y2="222.5951" gradientTransform="matrix(1 0 0 -1 194 1104)">
	<stop  offset="5.000000e-03" style="stop-color:#000014"/>
	<stop  offset="1" style="stop-color:#0B50A5"/>
</linearGradient>
<path style="fill:url(#SVGID_00000072968910018604911690000012503908715055898535_);" d="M867,862.3L853.5,668
	c-8.6-42.6-43.7-76.4-88.5-84.7l-177.9-52.4c-6.4,8.3-64.6,445-64.7,446.7"/>
<linearGradient id="SVGID_00000121983289350489297240000001371510453649230214_" gradientUnits="userSpaceOnUse" x1="98.7351" y1="648.2251" x2="98.7351" y2="263.7771" gradientTransform="matrix(1 0 0 -1 194 1104)">
	<stop  offset="5.000000e-03" style="stop-color:#000014"/>
	<stop  offset="1" style="stop-color:#0B50A5"/>
</linearGradient>
<path style="fill:url(#SVGID_00000121983289350489297240000001371510453649230214_);" d="M452.5,989.3c0,0-34.4-457.3-38.6-456.7
	c0,0-128.8,45.7-173,57c-44,11.3-79.9,42-88.3,84.7L133,860.8"/>
<path class="st8" d="M521.9,477.7h-37.6c-3.2,0-5.4-3.5-3.7-6.4l5.5-9.5c0.8-1.4,2.1-2.1,3.7-2.1h26.7c1.5,0,2.9,0.8,3.7,2.1
	l5.5,9.5C527.3,474,525.3,477.7,521.9,477.7z"/>
<linearGradient id="SVGID_00000178171750574705372310000017983753353622426003_" gradientUnits="userSpaceOnUse" x1="238.2084" y1="482.8453" x2="203.7653" y2="482.8453" gradientTransform="matrix(1 0 0 -1 194 1104)">
	<stop  offset="5.000000e-03" style="stop-color:#000014"/>
	<stop  offset="1" style="stop-color:#0B50A5"/>
</linearGradient>
<path style="fill:url(#SVGID_00000178171750574705372310000017983753353622426003_);" d="M414.9,532c0,0,4.3,43.2,5.5,57.5
	c2.8,30.2,10.3,120.8,10.3,120.8l-20.6-75.9l-36.5,42.6l12-134.3L414.9,532z"/>
<linearGradient id="SVGID_00000176752638540738728500000004776871585657603489_" gradientUnits="userSpaceOnUse" x1="360.5349" y1="484.0784" x2="406.7423" y2="482.1368" gradientTransform="matrix(1 0 0 -1 194 1104)">
	<stop  offset="5.000000e-03" style="stop-color:#000014"/>
	<stop  offset="1" style="stop-color:#0B50A5"/>
</linearGradient>
<path style="fill:url(#SVGID_00000176752638540738728500000004776871585657603489_);" d="M587.1,530.3c0,0-7.4,23.2-10.9,55.4
	c-3.5,31.4-17.5,125.4-17.5,125.4l23.9-71l34.5,40.5l0.3-140.8L587.1,530.3z"/>
<linearGradient id="SVGID_00000154389694200493230890000010888949990159254934_" gradientUnits="userSpaceOnUse" x1="313.3599" y1="876.4423" x2="313.3599" y2="684.736" gradientTransform="matrix(1 0 0 -1 194 1104)">
	<stop  offset="5.000000e-03" style="stop-color:#000014"/>
	<stop  offset="1" style="stop-color:#0B50A5"/>
</linearGradient>
<path style="fill:url(#SVGID_00000154389694200493230890000010888949990159254934_);" d="M619,245.2c-12.4-3.7-59-13.6-97.1,12.4
	c0,0-11.5,6.7-17.3,6.7c-6,0-17-6.7-17-6.7c-36.8-26.1-83.9-16.1-96.5-12.4c-4.9,1.5-13.5,3.2-13.5,3.2l1.7,15.9
	c0,0,3.7,1.2,5.4,1.5l-0.2,0.8c-0.2,1.4-0.2,35.9,17.6,55.7c8,8.7,18.6,13.3,31.4,13.3c26.5,0,39.7-15,46.2-27.8
	c6.9-13.5,9.4-27,9.4-27.5h3.1c2-5.8,22.1-5.8,23.8,0h3.1c0,0.6,1.8,14,8.1,27.5c5.8,12.6,18.4,27.8,44.9,27.8
	c13,0,23.8-4.4,32.1-13.3c18.7-19.8,20.4-54.1,20.2-55.7v-0.8c2.8-0.6,10.1-4,10.1-4l2.6-12.7C637.1,249.3,625.8,247.2,619,245.2z
	 M485.9,280.5c0,0.2-2.5,13-9,25.9c-8.7,17-23.2,25.6-42.9,25.6c-12,0-21.6-4.1-29-12.1c-16.7-18.6-16.7-53.1-16.6-53.4
	c0.6-2.6,5.7-20.1,42.6-20.1C487,246.4,485.9,279.5,485.9,280.5z M601.7,319.9c-7.7,8-17.5,12.1-29.4,12.1
	c-19.8,0-33.9-8.6-41.7-25.6c-6-12.9-7.8-25.8-7.8-25.9c0-0.9,0.5-34,56.6-34c36.8,0,41.1,17.6,41.6,20.1
	C620.8,267,619.3,301.3,601.7,319.9z"/>
<path class="st0" d="M507.2,76.8c-125.1,0-143.9,94.9-143.1,119.8c0.8,24.8,17.2,137.6,17.2,137.6s-3.4-28.4,0.5-55.4
	c3.7-25.6,14.4-52.3,25.2-71c22.2-38.5,58.6-12,76.5,1.7c17.9,13.6,23.6,10.3,23.6,10.3s5.7,3.4,23.6-10.3
	c17.9-13.6,54.3-40.2,76.5-1.7c12.1,20.9,21.8,54.6,20.2,81.1c-1.2,21.2-4.4,39.3-4.4,39.3s26.4-106.7,27-131.6
	C650.9,171.7,632.4,76.8,507.2,76.8z"/>
</svg>
