<svg width="1000" height="1000" viewBox="0 0 1000 1000" fill="none" xmlns="http://www.w3.org/2000/svg">
<path d="M33.381 864.19C39.6665 864.19 44.7619 859.095 44.7619 852.81C44.7619 846.524 39.6665 841.429 33.381 841.429C27.0954 841.429 22 846.524 22 852.81C22 859.095 27.0954 864.19 33.381 864.19Z" fill="#2D4356"/>
<path d="M84.5952 841.429H67.5238C64.5054 841.429 61.6106 842.628 59.4763 844.762C57.3419 846.896 56.1429 849.791 56.1429 852.81C56.1429 855.828 57.3419 858.723 59.4763 860.857C61.6106 862.991 64.5054 864.19 67.5238 864.19H84.5952C87.6137 864.19 90.5084 862.991 92.6428 860.857C94.7771 858.723 95.9762 855.828 95.9762 852.81C95.9762 849.791 94.7771 846.896 92.6428 844.762C90.5084 842.628 87.6137 841.429 84.5952 841.429ZM932.476 841.429H915.405C912.386 841.429 909.492 842.628 907.357 844.762C905.223 846.896 904.024 849.791 904.024 852.81C904.024 855.828 905.223 858.723 907.357 860.857C909.492 862.991 912.386 864.19 915.405 864.19H932.476C935.495 864.19 938.389 862.991 940.524 860.857C942.658 858.723 943.857 855.828 943.857 852.81C943.857 849.791 942.658 846.896 940.524 844.762C938.389 842.628 935.495 841.429 932.476 841.429Z" fill="#2D4356"/>
<path d="M966.619 864.19C972.905 864.19 978 859.095 978 852.81C978 846.524 972.905 841.429 966.619 841.429C960.334 841.429 955.238 846.524 955.238 852.81C955.238 859.095 960.334 864.19 966.619 864.19Z" fill="#2D4356"/>
<path d="M879.676 841.429H813.503C818.127 834.737 820.972 826.978 821.768 818.883C825.291 773.377 825.092 727.658 821.173 682.184C813.516 562.806 656.639 537.727 656.639 537.727C616.568 530.569 600.232 496.168 593.764 473.897C624.162 438.426 646.136 396.534 658.039 351.361C662.628 334.736 664.977 317.572 665.024 300.325C664.992 290.73 664.108 281.158 662.385 271.72C682.381 238.201 676.492 200.825 671.748 182.867C670.874 180.31 669.171 178.12 666.909 176.643C664.646 175.167 661.955 174.49 659.263 174.719C658.661 174.719 658.06 174.75 657.461 174.812C655.219 175.035 652.968 175.143 650.715 175.135C614.903 175.135 555.68 151.344 555.68 151.344C533.761 141.449 510.044 136.161 485.997 135.81V158.571H485.998C506.945 158.962 527.593 163.617 546.682 172.252C546.852 172.326 547.023 172.397 547.195 172.466C553.675 175.069 611.63 197.897 650.715 197.897C651.084 197.897 651.45 197.895 651.816 197.891C657.461 228.213 654.174 274.007 594.271 297.992C574.318 305.008 553.336 308.657 532.185 308.789C498.391 308.789 470.533 298.506 449.383 278.225C446.335 275.302 442.534 273.285 438.406 272.399C434.277 271.513 429.983 271.793 426.004 273.207C422.026 274.622 418.519 277.115 415.876 280.409C413.233 283.702 411.559 287.666 411.04 291.857L409.58 303.644L402.374 298.571C398.321 295.717 393.447 294.264 388.493 294.433C383.539 294.602 378.775 296.384 374.926 299.508C369.396 304.138 364.551 309.529 360.536 315.521C354.805 273.476 355.616 221.58 382.648 212.532C387.288 210.947 391.307 207.932 394.126 203.921C404.982 189.876 418.899 178.491 434.817 170.632C450.735 162.774 468.235 158.649 485.987 158.571L485.997 135.81L485.986 135.809C464.572 135.956 443.475 141.001 424.311 150.558C405.148 160.115 388.425 173.931 375.424 190.947C339.327 203.03 333.221 249.521 335.363 290.231C335.158 293.576 334.977 296.928 334.977 300.324C336.281 365.377 359.743 428.037 401.484 477.949C402.669 479.302 403.899 480.598 405.129 481.895C397.24 503.638 380.375 531.385 344.868 537.727C344.868 537.727 187.986 562.806 180.333 682.184C174.58 727.575 174.069 773.478 178.81 818.987C179.733 827.076 182.696 834.798 187.422 841.429H120.324C118.705 841.217 117.059 841.353 115.497 841.829C113.935 842.304 112.492 843.107 111.265 844.184C110.038 845.261 109.055 846.588 108.381 848.075C107.708 849.563 107.359 851.177 107.359 852.81C107.359 854.442 107.708 856.056 108.381 857.544C109.055 859.031 110.038 860.358 111.265 861.435C112.492 862.512 113.935 863.315 115.497 863.791C117.059 864.266 118.705 864.402 120.324 864.19H879.676C881.295 864.402 882.941 864.266 884.503 863.791C886.065 863.315 887.508 862.512 888.735 861.435C889.962 860.358 890.945 859.031 891.619 857.544C892.292 856.056 892.641 854.442 892.641 852.81C892.641 851.177 892.292 849.563 891.619 848.075C890.945 846.588 889.962 845.261 888.735 844.184C887.508 843.107 886.065 842.304 884.503 841.829C882.941 841.353 881.295 841.217 879.676 841.429V841.429ZM595.624 531.484L603.959 540.693L605.959 542.903L608.462 544.524L615.781 549.263L559.598 629.599L537.573 593.434L536.673 591.956L535.56 590.631C534.71 589.364 534.22 587.891 534.141 586.368C534.062 584.845 534.397 583.329 535.11 581.981L595.624 531.484ZM486.162 573.976L486.162 573.977C485.003 571.085 483.369 568.407 481.329 566.052L416.304 511.791C418.906 507.296 421.24 502.652 423.295 497.882C444.87 513.836 470.943 522.546 497.775 522.762C524.094 522.859 549.614 513.724 569.892 496.946C571.888 495.306 573.821 493.58 575.758 491.859C578.249 498.441 581.244 504.82 584.718 510.94L518.673 566.052C516.632 568.407 514.999 571.085 513.839 573.977L513.839 573.976H486.162ZM369.666 372.699C367.978 362.543 368.89 352.124 372.318 342.416C375.746 332.708 381.578 324.026 389.269 317.182L419.9 338.75C421.181 339.926 422.819 340.641 424.553 340.778C427.04 340.778 428.694 338.554 428.694 334.504L433.629 294.654C463.759 323.546 500.597 331.55 532.185 331.55C556.197 331.457 580.017 327.269 602.621 319.166C616.988 313.65 630.326 305.756 642.075 295.815C642.135 297.319 642.262 298.814 642.262 300.325C642.223 315.539 640.146 330.679 636.088 345.342C620.849 400.907 591.454 449.756 555.437 479.363C539.229 492.787 518.82 500.091 497.775 500C482.702 499.815 467.842 496.414 454.19 490.025C440.537 483.636 428.405 474.406 418.606 462.952C396.362 436.483 379.714 405.781 369.666 372.699H369.666ZM391.538 544.524L394.041 542.903L396.042 540.693L404.377 531.484L464.891 581.981C465.604 583.328 465.939 584.845 465.86 586.368C465.781 587.891 465.291 589.364 464.441 590.631L463.327 591.956L462.428 593.434L440.403 629.599L384.219 549.263L391.538 544.524ZM230.02 841.429C223.112 841.247 216.483 838.667 211.269 834.132C206.056 829.598 202.582 823.39 201.444 816.574C196.959 773.002 197.426 729.061 202.838 685.593L202.986 684.621L203.049 683.64C209.433 584.044 347.108 560.425 348.461 560.204L348.666 560.171L348.871 560.134C353.243 559.343 357.559 558.265 361.79 556.908L425.774 648.399C426.822 651.419 428.733 654.065 431.271 656.008C433.808 657.952 436.86 659.108 440.048 659.333C442.664 659.178 445.213 658.448 447.513 657.195C449.814 655.942 451.81 654.197 453.359 652.084L481.868 605.274C483.963 602.733 485.596 599.844 486.692 596.738H513.308C514.405 599.844 516.038 602.733 518.133 605.274L521.84 611.361L514.26 625.19H486.845L478.606 610.629L465.049 632.89L473.436 647.714L449.35 764.013C448.359 769.342 448.834 774.841 450.725 779.922C452.615 785.002 455.85 789.474 460.084 792.86L487.288 813.56C491.854 816.884 497.355 818.675 503.003 818.675C508.65 818.675 514.152 816.884 518.717 813.56L545.927 792.854C550.16 789.435 553.358 784.905 555.164 779.772C556.969 774.638 557.31 769.104 556.149 763.788L527.357 647.952H527.741L535.502 633.793L546.641 652.084C548.19 654.197 550.187 655.942 552.487 657.195C554.788 658.448 557.337 659.179 559.953 659.334C563.141 659.108 566.193 657.952 568.73 656.009C571.267 654.065 573.178 651.419 574.226 648.4L638.491 556.508C643.113 558.056 647.84 559.268 652.636 560.135L652.84 560.171L653.046 560.204C654.435 560.426 792.039 583.57 798.458 683.641L798.482 684.005L798.517 684.369C802.286 728.423 802.481 772.71 799.102 816.796C798.133 823.494 794.833 829.637 789.782 834.143C784.731 838.648 778.253 841.228 771.488 841.429H230.02ZM534.09 769.4C534.161 770.378 534.023 771.36 533.686 772.281C533.349 773.202 532.821 774.041 532.137 774.744L504.932 795.449C504.333 795.746 503.673 795.901 503.004 795.9C502.335 795.9 501.675 795.744 501.076 795.446L473.874 774.749C473.095 773.964 472.491 773.023 472.102 771.989C471.712 770.954 471.546 769.848 471.615 768.745L496.633 647.952H503.903L534.09 769.4ZM733.31 141.5C736.686 141.5 739.987 140.499 742.794 138.623C745.601 136.747 747.789 134.081 749.081 130.962C750.374 127.842 750.712 124.41 750.053 121.098C749.394 117.787 747.768 114.745 745.381 112.357C742.993 109.97 739.952 108.344 736.64 107.685C733.329 107.026 729.896 107.365 726.777 108.657C723.657 109.949 720.991 112.137 719.115 114.944C717.239 117.752 716.238 121.052 716.238 124.429C716.243 128.955 718.044 133.294 721.244 136.494C724.444 139.695 728.784 141.495 733.31 141.5ZM733.31 115.893C734.998 115.893 736.648 116.393 738.052 117.331C739.455 118.269 740.549 119.602 741.196 121.162C741.842 122.722 742.011 124.438 741.681 126.094C741.352 127.75 740.539 129.27 739.345 130.464C738.151 131.658 736.631 132.471 734.975 132.8C733.319 133.13 731.603 132.961 730.043 132.315C728.483 131.668 727.15 130.574 726.212 129.171C725.274 127.767 724.774 126.117 724.774 124.429C724.776 122.165 725.676 119.996 727.276 118.395C728.877 116.795 731.046 115.895 733.31 115.893V115.893ZM295.143 289.452C298.519 289.452 301.82 288.451 304.627 286.575C307.435 284.699 309.623 282.033 310.915 278.914C312.207 275.795 312.545 272.362 311.886 269.05C311.228 265.739 309.602 262.697 307.214 260.31C304.827 257.922 301.785 256.296 298.473 255.638C295.162 254.979 291.729 255.317 288.61 256.609C285.491 257.901 282.824 260.089 280.948 262.897C279.073 265.704 278.071 269.005 278.071 272.381C278.077 276.907 279.877 281.246 283.077 284.447C286.278 287.647 290.617 289.447 295.143 289.452V289.452ZM295.143 263.845C296.831 263.845 298.481 264.346 299.885 265.284C301.289 266.222 302.383 267.555 303.029 269.114C303.675 270.674 303.844 272.39 303.515 274.046C303.185 275.702 302.372 277.223 301.179 278.417C299.985 279.61 298.464 280.423 296.808 280.753C295.152 281.082 293.436 280.913 291.876 280.267C290.317 279.621 288.984 278.527 288.046 277.123C287.108 275.719 286.607 274.069 286.607 272.381C286.609 270.118 287.509 267.948 289.11 266.348C290.71 264.747 292.88 263.847 295.143 263.845ZM858.5 215.476C860.751 215.476 862.951 214.809 864.823 213.558C866.695 212.308 868.153 210.53 869.015 208.451C869.876 206.371 870.101 204.083 869.662 201.875C869.223 199.667 868.139 197.639 866.548 196.048C864.956 194.456 862.928 193.372 860.72 192.933C858.513 192.494 856.224 192.719 854.145 193.581C852.065 194.442 850.288 195.901 849.037 197.772C847.787 199.644 847.119 201.844 847.119 204.095C847.123 207.113 848.323 210.005 850.456 212.139C852.59 214.273 855.483 215.473 858.5 215.476V215.476ZM858.5 198.405C859.626 198.405 860.726 198.739 861.662 199.364C862.597 199.989 863.327 200.878 863.757 201.918C864.188 202.957 864.301 204.102 864.081 205.205C863.862 206.309 863.32 207.323 862.524 208.119C861.728 208.915 860.714 209.457 859.61 209.676C858.506 209.896 857.362 209.783 856.322 209.353C855.283 208.922 854.394 208.192 853.769 207.257C853.143 206.321 852.81 205.221 852.81 204.095C852.811 202.586 853.411 201.14 854.478 200.073C855.545 199.006 856.991 198.406 858.5 198.405V198.405Z" fill="#2D4356"/>
<path d="M710.548 329.286C712.799 329.286 714.999 328.618 716.871 327.368C718.742 326.117 720.201 324.34 721.062 322.26C721.924 320.18 722.149 317.892 721.71 315.684C721.271 313.477 720.187 311.449 718.595 309.857C717.004 308.266 714.976 307.182 712.768 306.742C710.56 306.303 708.272 306.529 706.192 307.39C704.113 308.252 702.335 309.71 701.085 311.582C699.834 313.453 699.167 315.654 699.167 317.905C699.17 320.922 700.37 323.815 702.504 325.948C704.638 328.082 707.53 329.282 710.548 329.286V329.286ZM710.548 312.214C711.673 312.214 712.773 312.548 713.709 313.173C714.645 313.799 715.374 314.687 715.805 315.727C716.236 316.767 716.348 317.911 716.129 319.015C715.909 320.119 715.367 321.133 714.571 321.929C713.776 322.724 712.762 323.266 711.658 323.486C710.554 323.705 709.41 323.593 708.37 323.162C707.33 322.731 706.441 322.002 705.816 321.066C705.191 320.13 704.857 319.03 704.857 317.905C704.859 316.396 705.459 314.95 706.526 313.883C707.592 312.816 709.039 312.216 710.548 312.214V312.214ZM215.476 164.262C217.727 164.262 219.928 163.594 221.799 162.344C223.671 161.093 225.129 159.316 225.991 157.236C226.852 155.157 227.078 152.868 226.638 150.661C226.199 148.453 225.115 146.425 223.524 144.833C221.932 143.242 219.904 142.158 217.697 141.719C215.489 141.28 213.201 141.505 211.121 142.366C209.041 143.228 207.264 144.686 206.013 146.558C204.763 148.43 204.095 150.63 204.095 152.881C204.099 155.898 205.299 158.791 207.432 160.925C209.566 163.058 212.459 164.258 215.476 164.262V164.262ZM215.476 147.19C216.602 147.19 217.702 147.524 218.638 148.149C219.573 148.775 220.303 149.663 220.734 150.703C221.164 151.743 221.277 152.887 221.057 153.991C220.838 155.095 220.296 156.109 219.5 156.905C218.704 157.701 217.69 158.243 216.586 158.462C215.483 158.682 214.338 158.569 213.299 158.138C212.259 157.708 211.37 156.978 210.745 156.042C210.119 155.107 209.786 154.006 209.786 152.881C209.787 151.372 210.387 149.926 211.454 148.859C212.521 147.792 213.967 147.192 215.476 147.19Z" fill="#2D4356"/>
<path d="M694.352 892.643H647.077C644.216 892.872 641.546 894.17 639.599 896.28C637.652 898.389 636.571 901.154 636.571 904.024C636.571 906.894 637.652 909.659 639.599 911.768C641.546 913.877 644.216 915.175 647.077 915.405H694.352C697.213 915.175 699.883 913.877 701.829 911.768C703.776 909.659 704.857 906.894 704.857 904.024C704.857 901.154 703.776 898.389 701.829 896.28C699.883 894.17 697.213 892.872 694.352 892.643ZM352.923 892.643H305.648C302.787 892.872 300.117 894.17 298.171 896.28C296.224 898.389 295.143 901.154 295.143 904.024C295.143 906.894 296.224 909.659 298.171 911.768C300.117 913.877 302.787 915.175 305.648 915.405H352.923C355.784 915.175 358.454 913.877 360.401 911.768C362.348 909.659 363.429 906.894 363.429 904.024C363.429 901.154 362.348 898.389 360.401 896.28C358.454 894.17 355.784 892.872 352.923 892.643V892.643ZM613.81 892.643H386.19C383.172 892.643 380.277 893.842 378.143 895.976C376.009 898.111 374.81 901.005 374.81 904.024C374.81 907.042 376.009 909.937 378.143 912.071C380.277 914.206 383.172 915.405 386.19 915.405H476.897V926.786H431.714C428.696 926.786 425.801 927.985 423.667 930.119C421.532 932.253 420.333 935.148 420.333 938.167C420.333 941.185 421.532 944.08 423.667 946.214C425.801 948.349 428.696 949.548 431.714 949.548H573.976C576.995 949.548 579.889 948.349 582.024 946.214C584.158 944.08 585.357 941.185 585.357 938.167C585.357 935.148 584.158 932.253 582.024 930.119C579.889 927.985 576.995 926.786 573.976 926.786H523.103V915.405H613.81C616.828 915.405 619.723 914.206 621.857 912.071C623.991 909.937 625.19 907.042 625.19 904.024C625.19 901.005 623.991 898.111 621.857 895.976C619.723 893.842 616.828 892.643 613.81 892.643Z" fill="#0BCEB2"/>
<path d="M59.4604 266.753L67.9221 255.628L62.5788 252.601L57.1501 265.063H56.968L51.4482 252.686L46.0138 255.805L54.3845 266.668V266.844L41.2964 265.154V271.209L54.4755 269.519V269.695L46.0138 280.552L51.0897 283.762L56.8826 271.209H57.0533L62.3967 283.671L68.0075 280.467L59.4604 269.78V269.604L72.9013 271.209V265.154L59.4604 266.929V266.753Z" fill="#0BCEB2"/>
<path d="M258.957 47.0722L257.25 43.9766L250.825 48.4436L250.734 48.3924L251.77 40.6591L248.162 40.5453L248.987 48.3981L248.931 48.4835L243.024 43.7035L241.197 46.6682L248.168 49.8207L248.117 49.9118L240.685 52.6773L242.204 55.7843L248.839 51.3799L248.925 51.4311L247.781 59.1531L251.497 59.2783L250.535 51.4596L250.586 51.3685L256.692 56.2168L258.525 53.2464L251.394 50.0597L251.446 49.9744L258.957 47.0722Z" fill="#0BCEB2"/>
<path d="M902.22 408.645L910.522 397.731L905.281 394.76L899.955 406.983H899.773L894.361 394.846L889.029 397.907L897.241 408.56V408.736L884.403 407.075V413.01L897.326 411.354V411.53L889.029 422.183L894.009 425.33L899.688 413.01H899.858L905.099 425.239L910.602 422.097L902.22 411.616V411.439L915.405 413.01V407.075L902.22 408.821V408.645Z" fill="#0BCEB2"/>
<path d="M921.721 99.0661V95.0714L912.844 96.2436V96.1241L918.432 88.7777L914.904 86.7804L911.319 95.0088H911.199L907.558 86.8373L903.967 88.8972L909.492 96.0672V96.1867L900.849 95.0714V99.0661L909.549 97.9508V98.0703L903.967 105.24L907.313 107.357L911.143 99.0661H911.256L914.785 107.295L918.489 105.183L912.844 98.1272V98.0077L921.721 99.0661Z" fill="#0BCEB2"/>
<path d="M543.828 101.798L536.669 110.988L540.96 113.702L545.865 103.078H546.008L550.531 113.622L555.277 110.914L548.045 101.872V101.718L559.42 103.078V97.9565L548.045 99.4588V99.3108L555.203 89.8931L550.685 87.3324L546.087 97.8768H545.939L541.267 87.4063L536.669 90.0467L543.754 99.2368V99.3848L532.675 97.9565V103.078L543.828 101.644V101.798Z" fill="#0BCEB2"/>
</svg>
