<?xml version="1.0" encoding="utf-8"?>
<!-- Generator: Adobe Illustrator 26.0.1, SVG Export Plug-In . SVG Version: 6.00 Build 0)  -->
<svg version="1.1" id="Layer_1" xmlns="http://www.w3.org/2000/svg" xmlns:xlink="http://www.w3.org/1999/xlink" x="0px" y="0px"
	 viewBox="0 0 1000 1000" style="enable-background:new 0 0 1000 1000;" xml:space="preserve">
<style type="text/css">
	.st0{fill:#2D4356;}
	.st1{fill:#FFFFFF;}
	.st2{fill:#0BCEB2;}
</style>
<path class="st0" d="M33.4,864.2c6.3,0,11.4-5.1,11.4-11.4c0-6.3-5.1-11.4-11.4-11.4c-6.3,0-11.4,5.1-11.4,11.4
	C22,859.1,27.1,864.2,33.4,864.2z"/>
<path class="st0" d="M84.6,841.4H67.5c-3,0-5.9,1.2-8,3.3c-2.1,2.1-3.3,5-3.3,8c0,3,1.2,5.9,3.3,8c2.1,2.1,5,3.3,8,3.3h17.1
	c3,0,5.9-1.2,8-3.3c2.1-2.1,3.3-5,3.3-8c0-3-1.2-5.9-3.3-8C90.5,842.6,87.6,841.4,84.6,841.4z M932.5,841.4h-17.1
	c-3,0-5.9,1.2-8,3.3c-2.1,2.1-3.3,5-3.3,8c0,3,1.2,5.9,3.3,8c2.1,2.1,5,3.3,8,3.3h17.1c3,0,5.9-1.2,8-3.3c2.1-2.1,3.3-5,3.3-8
	c0-3-1.2-5.9-3.3-8C938.4,842.6,935.5,841.4,932.5,841.4z"/>
<path class="st0" d="M966.6,864.2c6.3,0,11.4-5.1,11.4-11.4c0-6.3-5.1-11.4-11.4-11.4c-6.3,0-11.4,5.1-11.4,11.4
	C955.2,859.1,960.3,864.2,966.6,864.2z"/>
<path class="st1" d="M879.7,841.4h-66.2c4.6-6.7,7.5-14.5,8.3-22.5c3.5-45.5,3.3-91.2-0.6-136.7c-7.7-119.4-164.5-144.5-164.5-144.5
	c-40.1-7.2-56.4-41.6-62.9-63.8c30.4-35.5,52.4-77.4,64.3-122.5c4.6-16.6,6.9-33.8,7-51c0-9.6-0.9-19.2-2.6-28.6
	c20-33.5,14.1-70.9,9.4-88.9c-0.9-2.6-2.6-4.7-4.8-6.2c-2.3-1.5-5-2.2-7.6-1.9c-0.6,0-1.2,0-1.8,0.1c-2.2,0.2-4.5,0.3-6.7,0.3
	c-35.8,0-95-23.8-95-23.8c-21.9-9.9-45.6-15.2-69.7-15.5v22.8h0c20.9,0.4,41.6,5,60.7,13.7c0.2,0.1,0.3,0.1,0.5,0.2
	c6.5,2.6,64.4,25.4,103.5,25.4c0.4,0,0.7,0,1.1,0c5.6,30.3,2.4,76.1-57.5,100.1c-20,7-40.9,10.7-62.1,10.8
	c-33.8,0-61.7-10.3-82.8-30.6c-3-2.9-6.8-4.9-11-5.8c-4.1-0.9-8.4-0.6-12.4,0.8c-4,1.4-7.5,3.9-10.1,7.2c-2.6,3.3-4.3,7.3-4.8,11.4
	l-1.5,11.8l-7.2-5.1c-4.1-2.9-8.9-4.3-13.9-4.1c-5,0.2-9.7,2-13.6,5.1c-5.5,4.6-10.4,10-14.4,16c-5.7-42-4.9-93.9,22.1-103
	c4.6-1.6,8.7-4.6,11.5-8.6c10.9-14,24.8-25.4,40.7-33.3c15.9-7.9,33.4-12,51.2-12.1l0-22.8l0,0c-21.4,0.1-42.5,5.2-61.7,14.7
	c-19.2,9.6-35.9,23.4-48.9,40.4c-36.1,12.1-42.2,58.6-40.1,99.3c-0.2,3.3-0.4,6.7-0.4,10.1c1.3,65.1,24.8,127.7,66.5,177.6
	c1.2,1.4,2.4,2.6,3.6,3.9c-7.9,21.7-24.8,49.5-60.3,55.8c0,0-156.9,25.1-164.5,144.5c-5.8,45.4-6.3,91.3-1.5,136.8
	c0.9,8.1,3.9,15.8,8.6,22.4h-67.1c-1.6-0.2-3.3-0.1-4.8,0.4c-1.6,0.5-3,1.3-4.2,2.4c-1.2,1.1-2.2,2.4-2.9,3.9c-0.7,1.5-1,3.1-1,4.7
	c0,1.6,0.3,3.2,1,4.7c0.7,1.5,1.7,2.8,2.9,3.9s2.7,1.9,4.2,2.4c1.6,0.5,3.2,0.6,4.8,0.4h759.4c1.6,0.2,3.3,0.1,4.8-0.4
	c1.6-0.5,3-1.3,4.2-2.4s2.2-2.4,2.9-3.9c0.7-1.5,1-3.1,1-4.7c0-1.6-0.3-3.2-1-4.7c-0.7-1.5-1.7-2.8-2.9-3.9
	c-1.2-1.1-2.7-1.9-4.2-2.4C882.9,841.4,881.3,841.2,879.7,841.4L879.7,841.4z M595.6,531.5l8.3,9.2l2,2.2l2.5,1.6l7.3,4.7
	l-56.2,80.3l-22-36.2l-0.9-1.5l-1.1-1.3c-0.8-1.3-1.3-2.7-1.4-4.3s0.3-3,1-4.4L595.6,531.5z M486.2,574L486.2,574
	c-1.2-2.9-2.8-5.6-4.8-7.9l-65-54.3c2.6-4.5,4.9-9.1,7-13.9c21.6,16,47.6,24.7,74.5,24.9c26.3,0.1,51.8-9,72.1-25.8
	c2-1.6,3.9-3.4,5.9-5.1c2.5,6.6,5.5,13,9,19.1l-66,55.1c-2,2.4-3.7,5-4.8,7.9v0H486.2z M369.7,372.7c-1.7-10.2-0.8-20.6,2.7-30.3
	c3.4-9.7,9.3-18.4,17-25.2l30.6,21.6c1.3,1.2,2.9,1.9,4.7,2c2.5,0,4.1-2.2,4.1-6.3l4.9-39.9c30.1,28.9,67,36.9,98.6,36.9
	c24-0.1,47.8-4.3,70.4-12.4c14.4-5.5,27.7-13.4,39.5-23.4c0.1,1.5,0.2,3,0.2,4.5c0,15.2-2.1,30.4-6.2,45
	c-15.2,55.6-44.6,104.4-80.7,134c-16.2,13.4-36.6,20.7-57.7,20.6c-15.1-0.2-29.9-3.6-43.6-10c-13.7-6.4-25.8-15.6-35.6-27.1
	C396.4,436.5,379.7,405.8,369.7,372.7L369.7,372.7z M391.5,544.5l2.5-1.6l2-2.2l8.3-9.2l60.5,50.5c0.7,1.3,1,2.9,1,4.4
	c-0.1,1.5-0.6,3-1.4,4.3l-1.1,1.3l-0.9,1.5l-22,36.2l-56.2-80.3L391.5,544.5z M230,841.4c-6.9-0.2-13.5-2.8-18.8-7.3
	c-5.2-4.5-8.7-10.7-9.8-17.6c-4.5-43.6-4-87.5,1.4-131l0.1-1l0.1-1c6.4-99.6,144.1-123.2,145.4-123.4l0.2,0l0.2,0
	c4.4-0.8,8.7-1.9,12.9-3.2l64,91.5c1,3,3,5.7,5.5,7.6c2.5,1.9,5.6,3.1,8.8,3.3c2.6-0.2,5.2-0.9,7.5-2.1c2.3-1.3,4.3-3,5.8-5.1
	l28.5-46.8c2.1-2.5,3.7-5.4,4.8-8.5h26.6c1.1,3.1,2.7,6,4.8,8.5l3.7,6.1l-7.6,13.8h-27.4l-8.2-14.6L465,632.9l8.4,14.8L449.4,764
	c-1,5.3-0.5,10.8,1.4,15.9c1.9,5.1,5.1,9.6,9.4,12.9l27.2,20.7c4.6,3.3,10.1,5.1,15.7,5.1c5.6,0,11.1-1.8,15.7-5.1l27.2-20.7
	c4.2-3.4,7.4-7.9,9.2-13.1c1.8-5.1,2.1-10.7,1-16L527.4,648h0.4l7.8-14.2l11.1,18.3c1.5,2.1,3.5,3.9,5.8,5.1c2.3,1.3,4.8,2,7.5,2.1
	c3.2-0.2,6.2-1.4,8.8-3.3c2.5-1.9,4.4-4.6,5.5-7.6l64.3-91.9c4.6,1.5,9.3,2.8,14.1,3.6l0.2,0l0.2,0c1.4,0.2,139,23.4,145.4,123.4
	l0,0.4l0,0.4c3.8,44.1,4,88.3,0.6,132.4c-1,6.7-4.3,12.8-9.3,17.3c-5.1,4.5-11.5,7.1-18.3,7.3H230z M534.1,769.4
	c0.1,1-0.1,2-0.4,2.9c-0.3,0.9-0.9,1.8-1.5,2.5l-27.2,20.7c-0.6,0.3-1.3,0.5-1.9,0.5c-0.7,0-1.3-0.2-1.9-0.5l-27.2-20.7
	c-0.8-0.8-1.4-1.7-1.8-2.8c-0.4-1-0.6-2.1-0.5-3.2l25-120.8h7.3L534.1,769.4z M733.3,141.5c3.4,0,6.7-1,9.5-2.9
	c2.8-1.9,5-4.5,6.3-7.7c1.3-3.1,1.6-6.6,1-9.9c-0.7-3.3-2.3-6.4-4.7-8.7c-2.4-2.4-5.4-4-8.7-4.7c-3.3-0.7-6.7-0.3-9.9,1
	c-3.1,1.3-5.8,3.5-7.7,6.3c-1.9,2.8-2.9,6.1-2.9,9.5c0,4.5,1.8,8.9,5,12.1C724.4,139.7,728.8,141.5,733.3,141.5z M733.3,115.9
	c1.7,0,3.3,0.5,4.7,1.4c1.4,0.9,2.5,2.3,3.1,3.8c0.6,1.6,0.8,3.3,0.5,4.9c-0.3,1.7-1.1,3.2-2.3,4.4c-1.2,1.2-2.7,2-4.4,2.3
	c-1.7,0.3-3.4,0.2-4.9-0.5c-1.6-0.6-2.9-1.7-3.8-3.1c-0.9-1.4-1.4-3.1-1.4-4.7c0-2.3,0.9-4.4,2.5-6
	C728.9,116.8,731,115.9,733.3,115.9L733.3,115.9z M295.1,289.5c3.4,0,6.7-1,9.5-2.9c2.8-1.9,5-4.5,6.3-7.7c1.3-3.1,1.6-6.6,1-9.9
	c-0.7-3.3-2.3-6.4-4.7-8.7c-2.4-2.4-5.4-4-8.7-4.7c-3.3-0.7-6.7-0.3-9.9,1c-3.1,1.3-5.8,3.5-7.7,6.3c-1.9,2.8-2.9,6.1-2.9,9.5
	c0,4.5,1.8,8.9,5,12.1C286.3,287.6,290.6,289.4,295.1,289.5L295.1,289.5z M295.1,263.8c1.7,0,3.3,0.5,4.7,1.4
	c1.4,0.9,2.5,2.3,3.1,3.8c0.6,1.6,0.8,3.3,0.5,4.9c-0.3,1.7-1.1,3.2-2.3,4.4c-1.2,1.2-2.7,2-4.4,2.3c-1.7,0.3-3.4,0.2-4.9-0.5
	c-1.6-0.6-2.9-1.7-3.8-3.1c-0.9-1.4-1.4-3.1-1.4-4.7c0-2.3,0.9-4.4,2.5-6C290.7,264.7,292.9,263.8,295.1,263.8z M858.5,215.5
	c2.3,0,4.5-0.7,6.3-1.9c1.9-1.2,3.3-3,4.2-5.1c0.9-2.1,1.1-4.4,0.6-6.6c-0.4-2.2-1.5-4.2-3.1-5.8c-1.6-1.6-3.6-2.7-5.8-3.1
	c-2.2-0.4-4.5-0.2-6.6,0.6c-2.1,0.9-3.9,2.3-5.1,4.2c-1.2,1.9-1.9,4.1-1.9,6.3c0,3,1.2,5.9,3.3,8
	C852.6,214.3,855.5,215.5,858.5,215.5L858.5,215.5z M858.5,198.4c1.1,0,2.2,0.3,3.2,1c0.9,0.6,1.7,1.5,2.1,2.6
	c0.4,1,0.5,2.2,0.3,3.3c-0.2,1.1-0.8,2.1-1.6,2.9c-0.8,0.8-1.8,1.3-2.9,1.6c-1.1,0.2-2.2,0.1-3.3-0.3c-1-0.4-1.9-1.2-2.6-2.1
	c-0.6-0.9-1-2-1-3.2c0-1.5,0.6-3,1.7-4C855.5,199,857,198.4,858.5,198.4L858.5,198.4z"/>
<path class="st0" d="M710.5,329.3c2.3,0,4.5-0.7,6.3-1.9c1.9-1.3,3.3-3,4.2-5.1c0.9-2.1,1.1-4.4,0.6-6.6c-0.4-2.2-1.5-4.2-3.1-5.8
	c-1.6-1.6-3.6-2.7-5.8-3.1c-2.2-0.4-4.5-0.2-6.6,0.6c-2.1,0.9-3.9,2.3-5.1,4.2c-1.3,1.9-1.9,4.1-1.9,6.3c0,3,1.2,5.9,3.3,8
	C704.6,328.1,707.5,329.3,710.5,329.3L710.5,329.3z M710.5,312.2c1.1,0,2.2,0.3,3.2,1c0.9,0.6,1.7,1.5,2.1,2.6
	c0.4,1,0.5,2.2,0.3,3.3c-0.2,1.1-0.8,2.1-1.6,2.9c-0.8,0.8-1.8,1.3-2.9,1.6c-1.1,0.2-2.2,0.1-3.3-0.3s-1.9-1.2-2.6-2.1s-1-2-1-3.2
	c0-1.5,0.6-3,1.7-4C707.6,312.8,709,312.2,710.5,312.2L710.5,312.2z M215.5,164.3c2.3,0,4.5-0.7,6.3-1.9c1.9-1.3,3.3-3,4.2-5.1
	c0.9-2.1,1.1-4.4,0.6-6.6c-0.4-2.2-1.5-4.2-3.1-5.8c-1.6-1.6-3.6-2.7-5.8-3.1c-2.2-0.4-4.5-0.2-6.6,0.6c-2.1,0.9-3.9,2.3-5.1,4.2
	c-1.2,1.9-1.9,4.1-1.9,6.3c0,3,1.2,5.9,3.3,8C209.6,163.1,212.5,164.3,215.5,164.3L215.5,164.3z M215.5,147.2c1.1,0,2.2,0.3,3.2,1
	c0.9,0.6,1.7,1.5,2.1,2.6c0.4,1,0.5,2.2,0.3,3.3c-0.2,1.1-0.8,2.1-1.6,2.9s-1.8,1.3-2.9,1.6c-1.1,0.2-2.2,0.1-3.3-0.3
	c-1-0.4-1.9-1.2-2.6-2.1c-0.6-0.9-1-2-1-3.2c0-1.5,0.6-3,1.7-4C212.5,147.8,214,147.2,215.5,147.2z"/>
<path class="st2" d="M694.4,892.6h-47.3c-2.9,0.2-5.5,1.5-7.5,3.6c-1.9,2.1-3,4.9-3,7.7s1.1,5.6,3,7.7s4.6,3.4,7.5,3.6h47.3
	c2.9-0.2,5.5-1.5,7.5-3.6c1.9-2.1,3-4.9,3-7.7s-1.1-5.6-3-7.7C699.9,894.2,697.2,892.9,694.4,892.6z M352.9,892.6h-47.3
	c-2.9,0.2-5.5,1.5-7.5,3.6c-1.9,2.1-3,4.9-3,7.7s1.1,5.6,3,7.7c1.9,2.1,4.6,3.4,7.5,3.6h47.3c2.9-0.2,5.5-1.5,7.5-3.6s3-4.9,3-7.7
	s-1.1-5.6-3-7.7C358.5,894.2,355.8,892.9,352.9,892.6L352.9,892.6z M613.8,892.6H386.2c-3,0-5.9,1.2-8,3.3c-2.1,2.1-3.3,5-3.3,8
	c0,3,1.2,5.9,3.3,8c2.1,2.1,5,3.3,8,3.3h90.7v11.4h-45.2c-3,0-5.9,1.2-8,3.3c-2.1,2.1-3.3,5-3.3,8c0,3,1.2,5.9,3.3,8
	c2.1,2.1,5,3.3,8,3.3H574c3,0,5.9-1.2,8-3.3c2.1-2.1,3.3-5,3.3-8c0-3-1.2-5.9-3.3-8c-2.1-2.1-5-3.3-8-3.3h-50.9v-11.4h90.7
	c3,0,5.9-1.2,8-3.3c2.1-2.1,3.3-5,3.3-8c0-3-1.2-5.9-3.3-8C619.7,893.8,616.8,892.6,613.8,892.6z"/>
<path class="st2" d="M59.5,266.8l8.5-11.1l-5.3-3l-5.4,12.5H57l-5.5-12.4l-5.4,3.1l8.4,10.9v0.2l-13.1-1.7v6.1l13.2-1.7v0.2
	L46,280.6l5.1,3.2l5.8-12.6h0.2l5.3,12.5l5.6-3.2l-8.5-10.7v-0.2l13.4,1.6v-6.1l-13.4,1.8V266.8z"/>
<path class="st2" d="M259,47.1l-1.7-3.1l-6.4,4.5l-0.1-0.1l1-7.7l-3.6-0.1l0.8,7.9l-0.1,0.1l-5.9-4.8l-1.8,3l7,3.2l-0.1,0.1
	l-7.4,2.8l1.5,3.1l6.6-4.4l0.1,0.1l-1.1,7.7l3.7,0.1l-1-7.8l0.1-0.1l6.1,4.8l1.8-3l-7.1-3.2l0.1-0.1L259,47.1z"/>
<path class="st2" d="M902.2,408.6l8.3-10.9l-5.2-3L900,407h-0.2l-5.4-12.1l-5.3,3.1l8.2,10.7v0.2l-12.8-1.7v5.9l12.9-1.7v0.2
	l-8.3,10.7l5,3.1l5.7-12.3h0.2l5.2,12.2l5.5-3.1l-8.4-10.5v-0.2l13.2,1.6v-5.9l-13.2,1.7V408.6z"/>
<path class="st2" d="M921.7,99.1v-4l-8.9,1.2v-0.1l5.6-7.3l-3.5-2l-3.6,8.2h-0.1l-3.6-8.2l-3.6,2.1l5.5,7.2v0.1l-8.6-1.1v4l8.7-1.1
	v0.1l-5.6,7.2l3.3,2.1l3.8-8.3h0.1l3.5,8.2l3.7-2.1l-5.6-7.1V98L921.7,99.1z"/>
<path class="st2" d="M543.8,101.8l-7.2,9.2l4.3,2.7l4.9-10.6h0.1l4.5,10.5l4.7-2.7l-7.2-9v-0.2l11.4,1.4V98L548,99.5v-0.1l7.2-9.4
	l-4.5-2.6l-4.6,10.5h-0.1l-4.7-10.5l-4.6,2.6l7.1,9.2v0.1L532.7,98v5.1l11.2-1.4V101.8z"/>
</svg>
