<?xml version="1.0" encoding="utf-8"?>
<!-- Generator: Adobe Illustrator 26.0.1, SVG Export Plug-In . SVG Version: 6.00 Build 0)  -->
<svg version="1.1" id="Layer_1" xmlns="http://www.w3.org/2000/svg" xmlns:xlink="http://www.w3.org/1999/xlink" x="0px" y="0px"
	 viewBox="0 0 1000 701.4" style="enable-background:new 0 0 1000 701.4;" xml:space="preserve">
<style type="text/css">
	.st0{fill:#C8F4FF;}
	.st1{fill:#00BFCF;}
	.st2{fill:#69D3E2;}
	.st3{fill:#0054AD;}
	.st4{fill:#0079C9;}
	.st5{fill:#CC6167;}
	.st6{fill:#F1EDF2;}
	.st7{fill:#00657F;}
	.st8{fill:#FFB3BE;}
	.st9{fill:#FFFFFF;}
	.st10{opacity:0.5;fill:#FFBFC6;enable-background:new    ;}
	.st11{opacity:0.5;fill:#0054AD;enable-background:new    ;}
	.st12{fill:#FD4B34;}
	.st13{fill:#F59297;}
	.st14{fill:#EC4234;}
	.st15{fill:#FFBFC6;}
	.st16{fill:#511E1A;}
	.st17{fill:#E6DFE8;}
	.st18{fill:#B5AABA;}
	.st19{fill:#00DECA;}
	.st20{fill:#FFB0CA;}
	.st21{fill:#000942;}
</style>
<g>
	<path class="st0" d="M833.7,600.3c5-9.4,16.9-37,23.6-93.9c8.6-72.8-30.7-120.6-40.2-146.5c-9.6-25.9,21.1-80.5-23-134.1
		c-44-53.6-117.8-52.7-159-31.6s-93.9,43.1-136,2.9s-71.6-59.4-139.4-67.8c-71-8.7-184,36.5-176,132.2c7.9,94.4-58.8,82-77.3,172
		c-22,106.8,33.5,157.7,39.6,166.8H833.7z"/>
	<g>
		<rect x="169" y="420.3" class="st1" width="536.6" height="183.7"/>
		<g>
			<g>
				<polygon class="st2" points="715.2,604.1 704.2,604.1 704.2,420.3 170.4,420.3 170.4,604.1 159.5,604.1 159.5,409.4 
					715.2,409.4 				"/>
			</g>
			<g>
				<rect x="164.9" y="502.9" class="st2" width="544.7" height="10.9"/>
			</g>
			<g>
				<g>
					<rect x="333.2" y="414.8" class="st2" width="10.9" height="185.4"/>
				</g>
				<g>
					<rect x="530.4" y="414.8" class="st2" width="10.9" height="185.4"/>
				</g>
			</g>
		</g>
	</g>
	<g>
		<g>
			<path class="st3" d="M201.4,603.5c0,0-54.8-119.1-34.2-157.4s106.8-28.8,125.9,6.9c19.2,35.6,47.9,150.6,47.9,150.6H201.4z"/>
			<path class="st4" d="M293.2,452.9c-2.8-5.2-7.1-9.9-12.4-13.9c-15.9-6.4-48.2-15.6-68.3,4.4c-22.2,22.2,23.7,120.8,47,160.1H341
				C341.1,603.5,312.3,488.5,293.2,452.9z"/>
			<g>
				<path class="st4" d="M781.9,603.5c0,0,54.8-119.1,34.2-157.4c-20.6-38.3-106.8-28.8-125.9,6.9c-19.2,35.6-47.9,150.6-47.9,150.6
					H781.9z"/>
				<path class="st3" d="M710.1,433.9c-8.8,5-15.9,11.3-19.9,18.9c-19.2,35.6-47.9,150.6-47.9,150.6h90.2
					c18.8-40.7,55.5-126.3,42.5-151.7C765.7,433.6,735.8,431.8,710.1,433.9z"/>
			</g>
			<g>
				<g>
					<path class="st5" d="M505.3,533.6c0,0,10.7,2.3,16.4,2.3s21.6-8.5,24.8-5.4s-12.1,7.3-8.9,10.5c3.3,3.3,30.3,4.5,27.8,7
						c-2.6,2.6-17.8,1.4-17.8,1.4s18.9,1.9,18.9,4.5c0,2.6-18.7,0.9-18.7,0.9s16.4,2.4,14.2,4.6c-2.2,2.2-15.6,0-15.6,0
						s11.8,1.7,8.8,4.7c-0.9,0.9-19.3,0.2-27.5-3.5c-8.2-3.7-11.7-7.9-13.2-7.9s-17.1-2.8-17.1-2.8L505.3,533.6z"/>
					<path class="st6" d="M401.4,400.6c0,0,12.9,86.4,31,98.5c18.1,12.1,75.9,28.4,75.9,28.4s3.5,20.7-10.3,31.9
						c0,0-65.5-12.9-88.7-29.3c-23.2-16.4-50.8-115.5-47.4-125.8C365.2,393.9,401.4,400.6,401.4,400.6z"/>
				</g>
				<g>
					<g>
						<path class="st7" d="M416.7,384.2c-0.5,0-0.7-0.1-0.8-0.1l0.5-2.5c0.1,0,1.7,0.2,3.6-1.6c3.7-3.7,8.9-16.5,1.4-60.7l2.6-0.4
							c7.4,43.3,2.9,58.2-2.2,63C419.7,383.9,417.8,384.2,416.7,384.2z"/>
					</g>
					<g>
						<path class="st8" d="M448.4,328.2c1-10.2,0.9-21.2,0-30.7c-1.9-20-23.1-24.6-23.1-24.6s-36.7-16.7-52.1,14.7
							c-15.5,31.5-1.4,52.9-2.5,60c-1.2,7.1-8.8,27-8.8,27l33,17.3c0,0,2.9-13.1,3.8-18.8c0.9-5.8,7.5-7,7.5-7
							c12.1,4.6,25.9,7.8,35.3-9.2c1.9-3.5,3.5-8.2,4.7-13.5c1.8-0.1,5.5-0.5,6.9-1.8C454.4,340.1,450.2,331.8,448.4,328.2z"/>
						<path class="st9" d="M442.6,348.5l-10.5-3c0,0,0.4,9.8,3.6,9.8C439,355.4,442.6,348.5,442.6,348.5z"/>
						<path class="st7" d="M444,322.3c0,1.8-1.5,3.4-3.4,3.4c-1.8,0-3.4-1.5-3.4-3.4c0-1.8,1.5-3.4,3.4-3.4
							C442.5,318.9,444,320.4,444,322.3z"/>
						<path class="st7" d="M432.1,314.9c0,0,7.1-1.4,14.4,0c0,0,1.4-5.6-4.2-5.6C436.5,309.2,432.1,314.9,432.1,314.9z"/>
						<path class="st3" d="M450.8,265.9c7-1.2,13.9,2.8,15.9,9.7c1.4,4.6,2.3,10,1.5,15c-2.1,13.4-16.4,16.5-27.9,14
							c-9.4-2.1-17.3-8.9-17.3-8.9s0.2,13.4-6.7,18.5c-6.9,5.1-4.3,11.3-7.4,10.8s1.7-13.1-6.3-15.3c-7.9-2.1-10,12.5-4.7,17.1
							l-1.8,5.8c0,0-7.9,11.5-17.1,11.9c-9.2,0.4-13.9-4-19.3-22.2c-5.4-18.3-7.4-39.2,2.6-53.2c10-14,22.2-8.4,22.6-10.7
							c0.3-2.2,13.1-14.1,31.5-4.7C427.7,259.5,438,268.1,450.8,265.9z"/>
						<path class="st10" d="M394,347.7c-3.6,4.4,4.7,25.4,4.7,25.4c0.9-5.8,7.5-7,7.5-7S390.9,354.4,394,347.7z"/>
						<path class="st11" d="M468.1,291.6c-25.9,10-55.7-6.6-60.6-12.1c-1,8.2-1.2,15.9-11.3,26.5c-16.4,16.6-31.6,7.9-40.2-0.6
							c0.7,5.6,2.1,11.2,3.6,16.7c5.4,18.3,10.1,22.6,19.3,22.2c9.2-0.4,17.1-11.9,17.1-11.9l1.8-5.8c-5.3-4.6-3.2-19.3,4.7-17.1
							c8,2.1,3.1,14.8,6.3,15.3c3.1,0.5,0.5-5.8,7.4-10.8c6.9-5.1,6.7-18.5,6.7-18.5s7.9,6.8,17.3,8.9
							C451.6,307.1,465.4,304.2,468.1,291.6z"/>
					</g>
					<g>
						<g>
							<path class="st7" d="M476,516.5c-3.1,0-6.2-0.3-9.6-1c-44.1-9.1-50.9-119.4-51.6-131.7c-13.6-4.8-15.1-58.4-15.3-64.6
								l2.6-0.1c0.3,16.8,3.6,60.7,14.1,62.4l1,0.2l0.1,1.1c0.1,1.2,5.7,121.2,49.5,130.2c32,6.5,50.2-21.6,66.4-46.5
								c6-9.3,11.8-18.2,17.7-24.1c21.2-21.2,34.5-21.6,35.1-21.6v2.6c-0.1,0-12.9,0.4-33.3,20.8c-5.7,5.7-11.4,14.5-17.4,23.7
								C521.3,489.8,504,516.5,476,516.5z"/>
						</g>
						<g>
							<path class="st9" d="M404,319.2c0,1.7-1.4,3.1-3.1,3.1s-3.1-1.4-3.1-3.1s1.4-3.1,3.1-3.1S404,317.5,404,319.2z"/>
						</g>
					</g>
				</g>
				<g>
					<path class="st9" d="M355.8,371.6c0,0,31.5,7.9,53.9,39.7c18.9,26.9,19.3,191.9,19.3,191.9L290.4,604c0,0,13.2-38,18.9-74
						c6.2-39.3,7.2-99.8,17.3-123.9C341.9,369.3,355.8,371.6,355.8,371.6z"/>
					<path class="st6" d="M377,578.3c-13.9,1.2-28.3-11.3-29-1.2c-0.3,5.5-3.2,16.5-4.1,26.6l85.1-0.4c0,0-1.9-161.1-20.8-188.2
						c-7.7-11-29.4-20.8-37.4-25.5c-19.4,4.2-24,3.7-32.1,18.6c0,0-6.9,12,17.7,49.8c24.5,37.8,53.6,60.5,59.9,71.9
						c6.3,11.3,4.4,30.2-8.2,33.4c-12.6,3.1-51.1-39.1-48.5-27.1C361.9,548,390.9,577.1,377,578.3z"/>
					<path class="st6" d="M355.8,371.6c0,0,16.3,10.2,26.6,30.1s6,21.6,6,21.6l20.7,6l-17.3,10.3l35.5,103c0,0-2.8-91.9-10.6-116.8
						C409,400.9,365,362,365,362L355.8,371.6z"/>
				</g>
			</g>
			<g>
				<g>
					<path class="st12" d="M493,564.4c0,0-2.7-0.4,2.5,8.3c5.2,8.7,11.4,12.6,13.3,11.7c1.9-0.9,5.5-6.5,2.2-13.3
						C507.8,564.2,493,564.4,493,564.4z"/>
					<path class="st13" d="M512,580.4c0,0-7.9,3.8-9.2,5c-1.3,1.1-4,6.3-11.7,10.7c-6.8,3.8-12.2,8-14.1,5.9
						c-1.9-2.1,5.4-6.4,7.4-8.2s2.6-5,2.6-5s-4.5-0.3-10.2,1.2c-5.7,1.6-12.2,11.2-14.5,10.2c-3.6-1.5,6.4-12.5,6.4-12.5
						s-10.2,10.3-11.9,8.5c-1.6-1.9,8.8-12.8,8.8-12.8s5.6-5.5,11.4-7.7c5.8-2.2,12.6-2.6,20.1-4.7c7.4-2.1,17-12.1,17-12.1
						s14.7,9.3,11.7,13.4C524.5,574.2,512,580.4,512,580.4z"/>
					<path class="st14" d="M607.8,395.7c0,0-22.2,7.2-31.4,41.5c-9.2,34.4-14.5,68.5-22.4,79.1c-7.9,10.6-61,48.3-61,48.3
						s7.8,2.5,13.3,8.9c5.5,6.4,2.5,11.1,2.5,11.1s62.7-24.6,76.7-51.7c14-27,24.1-104.5,25.2-119.5
						C611.9,398.2,607.8,395.7,607.8,395.7z"/>
					<path class="st12" d="M585.5,532.7c10.4-20.2,18.8-68.5,22.7-97.9c-9.9,0.1-18.9,1.9-18.9,1.9s-0.8,61.8-9.6,80.7
						c-7.4,15.9-57.3,47.2-72.8,56.6c4.8,6.1,1.9,10.3,1.9,10.3S571.5,559.8,585.5,532.7z"/>
					<path class="st15" d="M627.1,387.2c0,0,6.9-3.4,9.2-5.5c2.2-2.2,1.2-29.3,1.2-29.3h34.5c0,0-3.1,26.5,0,29.6
						c3.1,3.1,6.4,2.8,6.4,2.8s6.8,19.8-16.4,28.3c-23.1,8.4-39.3-6.1-39.3-15.4C622.8,388.2,627.1,387.2,627.1,387.2z"/>
					<path class="st10" d="M671.9,353c0.1-0.5,0.1-0.7,0.1-0.7h-34.5c0,0,0.7,17.4-0.2,25.5C648,376.1,666.8,370.9,671.9,353z"/>
					<path class="st12" d="M627.1,387.2c0,0-9.2,20.3,18.7,22.4c27.8,2.1,32.6-25,32.6-25s26.9,2.4,37.3,25.4s-3.1,194.1-3.1,194.1
						H563.6c0,0,21.9-56,21.9-90s2.3-88.9,10.2-109.2C598.6,397.4,627.1,387.2,627.1,387.2z"/>
					<path class="st12" d="M688.9,439c0,0,0,39.5,0,63.3c0,23.8-29.4,29.1-27.1,36.9c2.3,7.9,17.8,12.7,14.5,22.8
						c-3.3,10.2-39.1,10.4-39.1,30.7c0,3.7,1.1,7.5,3.1,11.3h72.2c0,0,9.4-119.1,6.5-171.9C709.1,429.2,698.7,430.7,688.9,439z"/>
					<path class="st9" d="M629.1,386.3c0,0-4-2.3-7.4,3.1c-3.4,5.4-5.7,22.5,18.2,25.2s35-9.4,37.3-13.8c2.3-4.4,5.4-12.1,4.7-15.1
						s-6.1-1.6-6.1-1.6s1.6,24-28.3,24.4C617.5,408.7,629.1,386.3,629.1,386.3z"/>
					<path class="st13" d="M641.3,551.3c0,0-15.1,1.8-24.5,0.7c-9.4-1.2-11.3-1.9-23.3,2c-12,3.9-33.8,17.6-29.1,19.7
						c4.6,2.1,18.8-7.4,18.8-7.4s-16.4,11.5-14.6,13.6c1.7,2.1,18.4-8.8,18.4-8.8s-12.6,12.1-8.7,12.6c3.9,0.5,14.1-9.5,14.1-9.5
						s-9.3,10.1-5.7,10.6c3.6,0.4,11.8-8.6,11.8-8.6s12.3-0.4,16.4-3.6c4-3.1,6.9-4.5,9.8-4.1c2.9,0.3,21.6,1.7,21.6,1.7
						L641.3,551.3z"/>
					<path class="st12" d="M698.4,391.3c0,0,21.2,7.8,32.8,44c11.7,36.8,18.2,113.7,5.5,127.5s-101,14-101,14s-4.1-15.7-4.6-27.3
						c0,0,72.7-10.4,76.6-14.6c3.9-4.2-20.8-91.1-21.7-111.8C685.1,402.4,698.4,391.3,698.4,391.3z"/>
					<path class="st12" d="M710.4,399.6c0.2,0.8,0.3,1.7,0.6,2.5c0,0,17.9,84.7,20.5,115.3s-0.7,39.7-30.1,44.6
						c-21.1,3.6-52.4,3.3-68.4,2.9c1.2,6.6,2.6,11.8,2.6,11.8s88.3-0.2,101-14c12.7-13.8,6.3-90.7-5.5-127.5
						C725.4,417.2,717.1,406.2,710.4,399.6z"/>
					<g>
						<path class="st12" d="M631,550.1c-0.3,0-0.6-0.2-0.7-0.6c-0.1-0.3,0.2-0.7,0.5-0.7c0.6-0.1,62.1-10.4,75.7-14
							c10.2-2.7,17.9,2.2,21.4,5.2c-1.1-2.2-3.3-5.4-7.7-7.8c-1.9-1-2.7-1.8-2.6-2.6c0-0.2,0.2-0.7,0.9-1.1
							c2.3-0.9,9.8,0.6,12.6,3.5c0.2,0.2,0.2,0.7,0,0.9c-0.2,0.2-0.7,0.2-0.9,0c-2.8-2.8-10.1-3.9-11.3-3.2c0.2,0.2,0.6,0.7,1.9,1.3
							c7.9,4.2,9.2,10.9,9.3,11.2c0.1,0.2-0.1,0.6-0.3,0.7c-0.2,0.2-0.6,0.1-0.7-0.2c-0.1-0.1-8.8-10.3-22.1-6.9
							c-13.7,3.6-75.2,14-75.9,14C631.1,550.1,631,550.1,631,550.1z"/>
					</g>
					<g>
						<path class="st12" d="M692,457.5c-0.2,0-0.5-0.2-0.6-0.5c-11.4-38.5-3.9-50.3-3.6-50.7c0.2-0.3,0.6-0.3,0.9-0.2
							c0.3,0.2,0.3,0.6,0.2,0.9l0,0c-0.1,0.1-7.4,11.9,3.7,49.7c0.1,0.3-0.1,0.7-0.4,0.8C692.2,457.5,692.1,457.5,692,457.5z"/>
					</g>
				</g>
				<g>
					<path class="st15" d="M611,289.7c0,0-11.1,36.9,1.7,67.1c7.5,17.8,21.8,15,35,11.3c14.5-4,31.7-17.1,39.8-39.6
						c8.1-22.5,8.8-47.3-16.7-58C645.3,260,617.2,273.4,611,289.7z"/>
					<path class="st16" d="M619.5,328.9c0.1,1.7-1.3,3.2-3.1,3.3s-3.2-1.3-3.3-3.1c-0.1-1.7,1.3-3.2,3.1-3.3
						S619.4,327.2,619.5,328.9z"/>
					<path class="st16" d="M607.9,322.3c0,0,6.6-1.5,13.6-0.4c0,0,1.2-5.4-4.2-5.2C612,316.8,607.9,322.3,607.9,322.3z"/>
					<path class="st16" d="M638.3,329.7c0.1,1.7,1.5,3.1,3.3,3.1c1.7-0.1,3.1-1.5,3.1-3.3c-0.1-1.7-1.5-3.1-3.3-3.1
						C639.6,326.4,638.3,327.9,638.3,329.7z"/>
					<path class="st16" d="M649.5,322.3c0,0-6.7-1.1-13.6,0.4c0,0-1.5-5.3,3.8-5.5C645,317.1,649.5,322.3,649.5,322.3z"/>
					<path class="st5" d="M621,342.5c0,0,5.4,1.7,10.7,0c0,0-2.3,2.5-6.4,2.5S621,342.5,621,342.5z"/>
					<path class="st9" d="M622,350l15.2-0.7c0,0-5.9,9.7-11,7.3C621.1,354,622,350,622,350z"/>
					<path class="st16" d="M658.3,295.1c0,0-20.5,12.1-43.8,0.7c0,0-7.1,3.6-7.1,12.5c0,6.9-13.2-10.2-9-26.3
						c4.2-16,45.7-26.4,60.4-24.2c14.7,2.1,16.6,10.2,19.2,14.6c0,0,11.7,1.2,15,15c3.1,12.6,3.6,37.4-9.8,55.9
						c-1.8,2.6-5.9,1.7-6.3-1.4c-0.2-1.7-0.3-7.7,0.7-7.5c5.5,1.1,13.1-12.1,8.4-17.4c-6.7-7.4-12.2,1.8-12.2,7.9
						c0,6.2-5.5-5.4-5.9-11.6C667.4,307.1,659.6,306.4,658.3,295.1z"/>
				</g>
			</g>
			<g>
				<g>
					<g>
						<path class="st17" d="M604.9,403.4h-6.3v37.3h6.2c6.9,0,12.5-8.3,12.5-18.7C617.3,411.8,611.8,403.4,604.9,403.4z"/>
						<ellipse class="st18" cx="598.6" cy="422" rx="12.5" ry="18.7"/>
					</g>
					<g>
						<path class="st17" d="M596.1,409.8h-8.2v24.5h8.2c4.5,0,8.2-5.5,8.2-12.3C604.3,415.3,600.6,409.8,596.1,409.8z"/>
						<path class="st18" d="M596.1,422c0,6.8-3.6,12.3-8.2,12.3c-4.5,0-8.2-5.5-8.2-12.3c0-6.8,3.6-12.3,8.2-12.3
							C592.4,409.7,596.1,415.3,596.1,422z"/>
					</g>
				</g>
				<path class="st5" d="M533.1,441.6c0,0,13-1.9,18.6-6.7c5.6-4.8,13.5-18.3,20.5-20.9c6.9-2.6,24.8-10,25.2-6.5
					c0.4,3.5-14.8,10.4-14.8,10.4s19.2-6.1,18.3-1.7c-0.9,4.4-17.8,8.7-17.8,8.7s19.6,0.4,15.7,3.5s-15.2,2.1-15.2,2.1
					s14.4,3.5,10.9,5.2c-3.5,1.7-11.7,0.4-11.7,0.4s-11.7,13.5-25.2,13.1l-17.8,9.6L533.1,441.6z"/>
				<path class="st9" d="M340.7,399.1c-3.2,6-3.1,13.4-0.1,19.5c10.4,21.5,58.5,78.9,86.6,81.3c24.4,2.1,119-32.7,119-32.7
					s2.6-24.1-10.3-27.6l-102.5,20.7c0,0-47-59.1-56.8-68.8C368.5,383.5,348.3,384.9,340.7,399.1z"/>
				<path class="st6" d="M533.1,460c-8.7,4.7-98,23.5-105.7,31.2c-4.2,4.2-2.8,7-0.7,8.8c0.2,0,0.3,0.1,0.5,0.1
					c24.3,2.1,118.9-32.8,118.9-32.8s1.7-15.5-4.3-23.4C541.2,448.4,539.3,456.7,533.1,460z"/>
			</g>
			<g>
				<g>
					<path class="st18" d="M236.9,525.3h-4.5v-10.7c0-2.9-2.3-5.2-5.2-5.2H199c-2.9,0-5.2,2.3-5.2,5.2v10.7h-4.5v-10.7
						c0-5.4,4.4-9.8,9.8-9.8h28.2c5.4,0,9.8,4.4,9.8,9.8V525.3L236.9,525.3z"/>
				</g>
				<rect x="149.8" y="522.8" class="st9" width="98.1" height="71.6"/>
				<rect x="247.9" y="522.8" class="st18" width="28.8" height="71.6"/>
				<circle class="st19" cx="198.9" cy="558.5" r="23.7"/>
				<g>
					<rect x="191.5" y="542.5" class="st9" width="15.3" height="32.1"/>
					<rect x="183.1" y="550.9" class="st9" width="32.1" height="15.3"/>
				</g>
			</g>
			<g>
				<path class="st18" d="M314.5,594.3h-30.4V494.2c0-3.6,2.9-6.4,6.4-6.4H308c3.6,0,6.4,2.9,6.4,6.4V594.3z"/>
				<path class="st17" d="M320,594.3h-30.4V494.2c0-3.6,2.9-6.4,6.4-6.4h17.5c3.6,0,6.4,2.9,6.4,6.4V594.3z"/>
				<rect x="299.3" y="496.7" class="st9" width="11.7" height="97.7"/>
				<g>
					<g>
						<rect x="301.5" y="498.6" class="st7" width="0.7" height="95.7"/>
					</g>
					<g>
						<g>
							<rect x="303.3" y="500.7" class="st7" width="4.9" height="0.7"/>
						</g>
						<g>
							<rect x="303.3" y="502.4" class="st7" width="3" height="0.7"/>
						</g>
						<g>
							<rect x="303.3" y="504.2" class="st7" width="3" height="0.7"/>
						</g>
						<g>
							<rect x="303.3" y="505.9" class="st7" width="3" height="0.7"/>
						</g>
						<g>
							<rect x="303.3" y="507.7" class="st7" width="3" height="0.7"/>
						</g>
					</g>
					<g>
						<g>
							<rect x="303.3" y="509.5" class="st7" width="4.9" height="0.7"/>
						</g>
						<g>
							<rect x="303.3" y="511.3" class="st7" width="3" height="0.7"/>
						</g>
						<g>
							<rect x="303.3" y="513" class="st7" width="3" height="0.7"/>
						</g>
						<g>
							<rect x="303.3" y="514.7" class="st7" width="3" height="0.7"/>
						</g>
						<g>
							<rect x="303.3" y="516.5" class="st7" width="3" height="0.7"/>
						</g>
					</g>
					<g>
						<g>
							<rect x="303.3" y="518.3" class="st7" width="4.9" height="0.7"/>
						</g>
						<g>
							<rect x="303.3" y="520" class="st7" width="3" height="0.7"/>
						</g>
						<g>
							<rect x="303.3" y="521.8" class="st7" width="3" height="0.7"/>
						</g>
						<g>
							<rect x="303.3" y="523.5" class="st7" width="3" height="0.7"/>
						</g>
						<g>
							<rect x="303.3" y="525.3" class="st7" width="3" height="0.7"/>
						</g>
					</g>
					<g>
						<g>
							<rect x="303.3" y="527.1" class="st7" width="4.9" height="0.7"/>
						</g>
						<g>
							<rect x="303.3" y="528.9" class="st7" width="3" height="0.7"/>
						</g>
						<g>
							<rect x="303.3" y="530.6" class="st7" width="3" height="0.7"/>
						</g>
						<g>
							<rect x="303.3" y="532.3" class="st7" width="3" height="0.7"/>
						</g>
						<g>
							<rect x="303.3" y="534.1" class="st7" width="3" height="0.7"/>
						</g>
					</g>
					<g>
						<g>
							<rect x="303.3" y="535.9" class="st7" width="4.9" height="0.7"/>
						</g>
						<g>
							<rect x="303.3" y="537.6" class="st7" width="3" height="0.7"/>
						</g>
						<g>
							<rect x="303.3" y="539.4" class="st7" width="3" height="0.7"/>
						</g>
						<g>
							<rect x="303.3" y="541.1" class="st7" width="3" height="0.7"/>
						</g>
						<g>
							<rect x="303.3" y="542.9" class="st7" width="3" height="0.7"/>
						</g>
					</g>
					<g>
						<g>
							<rect x="303.3" y="544.7" class="st7" width="4.9" height="0.7"/>
						</g>
						<g>
							<rect x="303.3" y="546.5" class="st7" width="3" height="0.7"/>
						</g>
						<g>
							<rect x="303.3" y="548.2" class="st7" width="3" height="0.7"/>
						</g>
						<g>
							<rect x="303.3" y="550" class="st7" width="3" height="0.7"/>
						</g>
						<g>
							<rect x="303.3" y="551.7" class="st7" width="3" height="0.7"/>
						</g>
					</g>
					<g>
						<g>
							<rect x="303.3" y="553.5" class="st7" width="4.9" height="0.7"/>
						</g>
						<g>
							<rect x="303.3" y="555.2" class="st7" width="3" height="0.7"/>
						</g>
						<g>
							<rect x="303.3" y="557" class="st7" width="3" height="0.7"/>
						</g>
						<g>
							<rect x="303.3" y="558.7" class="st7" width="3" height="0.7"/>
						</g>
						<g>
							<rect x="303.3" y="560.5" class="st7" width="3" height="0.7"/>
						</g>
					</g>
					<g>
						<g>
							<rect x="303.3" y="562.3" class="st7" width="4.9" height="0.7"/>
						</g>
						<g>
							<rect x="303.3" y="564.1" class="st7" width="3" height="0.7"/>
						</g>
						<g>
							<rect x="303.3" y="565.8" class="st7" width="3" height="0.7"/>
						</g>
						<g>
							<rect x="303.3" y="567.6" class="st7" width="3" height="0.7"/>
						</g>
						<g>
							<rect x="303.3" y="569.3" class="st7" width="3" height="0.7"/>
						</g>
					</g>
					<g>
						<g>
							<rect x="303.3" y="571.1" class="st7" width="4.9" height="0.7"/>
						</g>
						<g>
							<rect x="303.3" y="572.8" class="st7" width="3" height="0.7"/>
						</g>
						<g>
							<rect x="303.3" y="574.6" class="st7" width="3" height="0.7"/>
						</g>
						<g>
							<rect x="303.3" y="576.3" class="st7" width="3" height="0.7"/>
						</g>
						<g>
							<rect x="303.3" y="578.1" class="st7" width="3" height="0.7"/>
						</g>
					</g>
					<g>
						<g>
							<rect x="303.3" y="579.9" class="st7" width="4.9" height="0.7"/>
						</g>
						<g>
							<rect x="303.3" y="581.7" class="st7" width="3" height="0.7"/>
						</g>
						<g>
							<rect x="303.3" y="583.4" class="st7" width="3" height="0.7"/>
						</g>
						<g>
							<rect x="303.3" y="585.2" class="st7" width="3" height="0.7"/>
						</g>
						<g>
							<rect x="303.3" y="586.9" class="st7" width="3" height="0.7"/>
						</g>
					</g>
				</g>
				<g>
					<rect x="284.1" y="582.3" class="st3" width="85.9" height="12"/>
					<rect x="284.1" y="582.3" class="st4" width="68.7" height="12"/>
				</g>
			</g>
		</g>
		<path class="st0" d="M847.6,594.3H122.9c-5.4,0-9.7,4.3-9.7,9.7s4.3,9.7,9.7,9.7h724.7c5.4,0,9.7-4.3,9.7-9.7
			S852.9,594.3,847.6,594.3z"/>
	</g>
	<g>
		<rect x="211.8" y="241.6" class="st20" width="101.1" height="138.3"/>
		<rect x="217.7" y="249.7" class="st9" width="89.2" height="122"/>
		<path class="st12" d="M277.1,244.3c-2.1-0.3-3.5-2.5-2.8-4.5c0.7-2.3-1-4.6-3.4-4.6h-8.6h-8.7c-2.4,0-4,2.3-3.4,4.6
			c0.7,2.1-0.7,4.2-2.8,4.5l-6.7,1v6.9h21.6h21.5v-6.9L277.1,244.3z"/>
		<g>
			<rect x="227.9" y="263.9" class="st19" width="21.1" height="21.1"/>
			<polygon class="st9" points="229.6,270.4 232.4,270.4 238.4,277.2 247.8,265.4 238.4,279.8 			"/>
			<g>
				<rect x="252.6" y="266.7" class="st21" width="44.2" height="0.7"/>
			</g>
			<g>
				<polyline class="st21" points="252.6,274.8 252.6,274 296.8,274 296.8,274.8 				"/>
			</g>
			<g>
				<rect x="252.6" y="281.4" class="st21" width="44.2" height="0.7"/>
			</g>
		</g>
		<g>
			<rect x="227.9" y="289.8" class="st19" width="21.1" height="21.1"/>
			<polygon class="st9" points="229.6,296.4 232.4,296.4 238.4,303.1 247.8,291.4 238.4,305.8 			"/>
			<g>
				<rect x="252.6" y="292.6" class="st21" width="44.2" height="0.7"/>
			</g>
			<g>
				<polyline class="st21" points="296.8,300 296.8,300.7 252.6,300.7 252.6,300 				"/>
			</g>
			<g>
				<rect x="252.6" y="307.3" class="st21" width="44.2" height="0.7"/>
			</g>
		</g>
		<g>
			<rect x="227.9" y="315.8" class="st19" width="21.1" height="21.1"/>
			<polygon class="st9" points="229.6,322.3 232.4,322.3 238.4,329.1 247.8,317.3 238.4,331.7 			"/>
			<g>
				<rect x="252.6" y="318.6" class="st21" width="44.2" height="0.7"/>
			</g>
			<g>
				<polyline class="st21" points="296.8,325.9 296.8,326.7 252.6,326.7 252.6,325.9 				"/>
			</g>
			<g>
				<rect x="252.6" y="333.3" class="st21" width="44.2" height="0.7"/>
			</g>
		</g>
		<g>
			<rect x="227.9" y="341.7" class="st19" width="21.1" height="21.1"/>
			<polygon class="st9" points="229.6,348.2 232.4,348.2 238.4,355.1 247.8,343.3 238.4,357.7 			"/>
			<g>
				<rect x="252.6" y="344.5" class="st21" width="44.2" height="0.7"/>
			</g>
			<g>
				<polyline class="st21" points="296.8,351.9 296.8,352.6 252.6,352.6 252.6,351.9 				"/>
			</g>
			<g>
				<rect x="252.6" y="359.2" class="st21" width="44.2" height="0.7"/>
			</g>
		</g>
	</g>
	<g>
		<path class="st12" d="M773,232.9L773,232.9c-5.2-10.6-18.8-13.7-28.1-6.5l-2.1,1.6l-2.1-1.6c-9.3-7.2-22.9-4-28.1,6.5l0,0
			c-3.1,6.4-2.3,14.1,2.1,19.7l28,24.3l28-24.3C775.3,247.1,776.1,239.3,773,232.9z"/>
		<g>
			<path class="st9" d="M752.7,264.5L752.7,264.5c-0.4,0-0.7-0.2-0.9-0.7l-7.1-28.3l-8.7,24c-0.2,0.4-0.5,0.6-0.9,0.6
				c-0.4,0-0.7-0.3-0.8-0.7l-3.6-18.8l-3.9,9.5c-0.2,0.3-0.5,0.6-0.8,0.6h-28.1c-0.5,0-0.9-0.4-0.9-0.9c0-0.5,0.4-0.9,0.9-0.9h27.5
				l4.8-11.7c0.2-0.3,0.5-0.6,0.9-0.6c0.4,0.1,0.7,0.3,0.8,0.7l3.6,18.6l8.6-23.7c0.2-0.3,0.5-0.6,0.9-0.6c0.4,0,0.7,0.3,0.8,0.7
				l6.9,27.8l5.3-20.8c0.1-0.4,0.4-0.7,0.8-0.7l0,0c0.4,0,0.7,0.2,0.8,0.7l2.6,9.7h25.6c0.5,0,0.9,0.4,0.9,0.9
				c0,0.5-0.4,0.9-0.9,0.9h-26.2c-0.4,0-0.7-0.2-0.8-0.7l-1.9-7l-5.3,20.9C753.5,264.3,753.1,264.5,752.7,264.5z"/>
		</g>
	</g>
</g>
</svg>
