<?xml version="1.0" encoding="utf-8"?>
<!-- Generator: Adobe Illustrator 26.0.1, SVG Export Plug-In . SVG Version: 6.00 Build 0)  -->
<svg version="1.0" id="Layer_1" xmlns="http://www.w3.org/2000/svg" xmlns:xlink="http://www.w3.org/1999/xlink" x="0px" y="0px"
	 viewBox="0 0 1000 1000" style="enable-background:new 0 0 1000 1000;" xml:space="preserve">
<style type="text/css">
	.st0{fill:#1778F2;}
	.st1{fill:#FDFDFD;}
</style>
<path class="st0" d="M982.07,491.44C982.07,225.16,766.21,9.3,499.93,9.3C233.65,9.3,17.79,225.16,17.79,491.44
	c0,266.28,215.86,482.14,482.14,482.14C766.21,973.57,982.07,757.72,982.07,491.44z"/>
<path class="st1" d="M538.39,763.58V505.5h86.63l12.99-100.58h-99.62V340.7c0-29.12,8.09-48.96,49.85-48.96h53.26V201.8
	c-25.78-2.73-51.69-4.05-77.61-3.96c-76.79,0-129.36,46.87-129.36,132.95v74.12h-86.85V505.5h86.85v258.08H538.39z"/>
</svg>
