<?xml version="1.0" encoding="utf-8"?>
<!-- Generator: Adobe Illustrator 26.0.1, SVG Export Plug-In . SVG Version: 6.00 Build 0)  -->
<svg version="1.1" id="Layer_1" xmlns="http://www.w3.org/2000/svg" xmlns:xlink="http://www.w3.org/1999/xlink" x="0px" y="0px"
	 viewBox="0 0 1000 1000" style="enable-background:new 0 0 1000 1000;" xml:space="preserve">
<style type="text/css">
	.st0{fill:url(#SVGID_1_);}
	.st1{fill:url(#SVGID_00000070804911416313197200000004759627894129014970_);}
	.st2{fill:url(#SVGID_00000129181510793735619450000005286660341818825103_);}
	.st3{fill:url(#SVGID_00000137093568233474562620000011885343242966129315_);}
	.st4{fill:url(#SVGID_00000167386769864272871560000000267965901587736233_);}
	
		.st5{fill:none;stroke:url(#SVGID_00000142855419131767309200000016353011396088227211_);stroke-width:15;stroke-linecap:round;stroke-linejoin:round;}
	
		.st6{fill:none;stroke:url(#SVGID_00000008846381768844789550000007768015253824888500_);stroke-width:15;stroke-linecap:round;stroke-linejoin:round;stroke-dasharray:13.08,13.08;}
	
		.st7{fill:none;stroke:url(#SVGID_00000098188260776195958270000005809197662877867652_);stroke-width:15;stroke-linecap:round;stroke-linejoin:round;}
	.st8{fill:url(#SVGID_00000093139846399789937400000005664845275755659161_);}
	.st9{fill:url(#SVGID_00000016048911716616588650000003356813315979236026_);}
	.st10{fill:url(#SVGID_00000158003635713671489260000016777884902329270959_);}
</style>
<linearGradient id="SVGID_1_" gradientUnits="userSpaceOnUse" x1="106.0281" y1="657.4116" x2="509.8652" y2="661.1714" gradientTransform="matrix(1 0 0 -1 194 1104)">
	<stop  offset="0" style="stop-color:#000000"/>
	<stop  offset="1" style="stop-color:#111111"/>
</linearGradient>
<path class="st0" d="M681.5,690.4L327,690.9c-13.6,0-24.8-12.8-24.9-28.5L298,227.7c-0.1-15.7,10.8-28.6,24.4-28.6l354.5-0.6
	c13.6,0,24.8,12.8,24.9,28.5l4.1,434.7C706,677.5,695.1,690.3,681.5,690.4z"/>
<linearGradient id="SVGID_00000080912931034541722390000013268140282540865972_" gradientUnits="userSpaceOnUse" x1="299.622" y1="587.316" x2="314.2527" y2="89.8401" gradientTransform="matrix(1 0 0 -1 194 1104)">
	<stop  offset="3.200000e-02" style="stop-color:#FAAF87"/>
	<stop  offset="0.82" style="stop-color:#FFD9A9"/>
</linearGradient>
<path style="fill:url(#SVGID_00000080912931034541722390000013268140282540865972_);" d="M799,655.4
	c-28.6-28.3-164.9-10.3-210.6-61.9c-9.2-10.4-18.2-46.3-25.2-82.7c-0.2-1.1-1.3-1.9-2.5-1.9h-56.2h-5.2H443c-1.2,0-2.3,0.8-2.5,1.9
	c-7.1,36.5-16.1,72.4-25.3,82.7c-45.7,51.6-181.9,33.6-210.6,61.9c-11.8,11.7-14.9,38.2-15,62.5c0,0,1.1,236.1,2.5,236.1
	c0,0,621.9-1,621.9-2.3V717.8C813.9,693.6,810.7,667.1,799,655.4z"/>
<linearGradient id="SVGID_00000075142175369638409460000007292424929473092499_" gradientUnits="userSpaceOnUse" x1="269.1091" y1="952.7941" x2="353.8999" y2="603.9948" gradientTransform="matrix(1 0 0 -1 194 1104)">
	<stop  offset="3.200000e-02" style="stop-color:#FAAF87"/>
	<stop  offset="1" style="stop-color:#FFD9A9"/>
</linearGradient>
<path style="fill:url(#SVGID_00000075142175369638409460000007292424929473092499_);" d="M347.2,237
	c21.6-94.5,89.6-132.3,153.3-133.3v-0.1c0.5,0,1.1,0.1,1.6,0.1c0.6,0,1,0,1.6,0v0.1c63.7,1.2,131.6,39.2,153,133.7
	c30.8,136.2-22.7,221.5-83.5,273.1c-24.6,20.9-47.9,30.2-70,30.2v0.1c-0.6,0-1.1-0.1-1.6-0.1s-1.1,0.1-1.6,0.1v-0.1
	c-22.2-0.1-45.4-9.4-70-30.4C369.3,458.6,316,373.2,347.2,237z"/>
<linearGradient id="SVGID_00000121263597802848144470000001819067938202828217_" gradientUnits="userSpaceOnUse" x1="306.0561" y1="661.0521" x2="307.5195" y2="636.4415" gradientTransform="matrix(1 0 0 -1 194 1104)">
	<stop  offset="0" style="stop-color:#FF0036"/>
	<stop  offset="1" style="stop-color:#FF2651"/>
</linearGradient>
<path style="fill:url(#SVGID_00000121263597802848144470000001819067938202828217_);" d="M510.7,436.6c-3.9,0-8.4,5-10.2,5
	c-1.8,0-6.3-5-10.2-5c-8.7,0-37.7,14.4-37.7,14.4s6.7,4.9,12.3,7.1c13.7,5.3,24.3,10.2,35.6,10.2c11.3,0,21.9-4.8,35.6-10.2
	c5.6-2.2,12.3-7.1,12.3-7.1S519.4,436.6,510.7,436.6z"/>
<linearGradient id="SVGID_00000131344221198335461010000012997420632955219614_" gradientUnits="userSpaceOnUse" x1="107.4267" y1="924.3422" x2="505.79" y2="924.3422" gradientTransform="matrix(1 0 0 -1 194 1104)">
	<stop  offset="0" style="stop-color:#000000"/>
	<stop  offset="1" style="stop-color:#111111"/>
</linearGradient>
<path style="fill:url(#SVGID_00000131344221198335461010000012997420632955219614_);" d="M321.9,340.7c3.3,6.4,10.9,8.3,16.3,4.1
	l79.4-60.7c36.3-28.9,132.1-80.9,161.8-103c5-3.8,11.9-2.5,15.5,2.9c35.2,53.3,55.3,107.1,65.5,144.9c3,11.2,17,12.1,21.3,1.4
	C692.7,303,706.1,250,696.5,183c-13.7-96.5-67.8-162.3-156-168.7c-16-1.2-206.3-28.6-235,168.7C293.4,267.1,310.7,319.1,321.9,340.7
	z"/>
<linearGradient id="SVGID_00000133496686455839433560000011096824613897637547_" gradientUnits="userSpaceOnUse" x1="455.3799" y1="892.3735" x2="500.3579" y2="892.3735" gradientTransform="matrix(1 0 0 -1 194 1104)">
	<stop  offset="3.800000e-02" style="stop-color:#A000FF"/>
	<stop  offset="1" style="stop-color:#3E1668"/>
</linearGradient>
<path style="fill:none;stroke:url(#SVGID_00000133496686455839433560000011096824613897637547_);stroke-width:15;stroke-linecap:round;stroke-linejoin:round;" d="
	M694.8,214.4c-0.9-1.9-1.9-3.7-2.8-5.6"/>
<linearGradient id="SVGID_00000045610688499667380190000004193103271888356526_" gradientUnits="userSpaceOnUse" x1="153.3137" y1="954.7205" x2="452.9464" y2="954.7205" gradientTransform="matrix(1 0 0 -1 194 1104)">
	<stop  offset="3.800000e-02" style="stop-color:#A000FF"/>
	<stop  offset="1" style="stop-color:#3E1668"/>
</linearGradient>
<path style="fill:none;stroke:url(#SVGID_00000045610688499667380190000004193103271888356526_);stroke-width:15;stroke-linecap:round;stroke-linejoin:round;stroke-dasharray:13.08,13.08;" d="
	M686,197.8C572.5-2.1,340.7,110.4,304.3,211.4"/>
<linearGradient id="SVGID_00000166655773931870253650000018141881551270257295_" gradientUnits="userSpaceOnUse" x1="106.8072" y1="883.5614" x2="148.755" y2="883.5614" gradientTransform="matrix(1 0 0 -1 194 1104)">
	<stop  offset="3.800000e-02" style="stop-color:#A000FF"/>
	<stop  offset="1" style="stop-color:#3E1668"/>
</linearGradient>
<path style="fill:none;stroke:url(#SVGID_00000166655773931870253650000018141881551270257295_);stroke-width:15;stroke-linecap:round;stroke-linejoin:round;" d="
	M302.4,217.4c-0.6,2-1.1,4.1-1.5,6.1"/>
<linearGradient id="SVGID_00000099643037455935104640000017398306951929342396_" gradientUnits="userSpaceOnUse" x1="317.4283" y1="491.6397" x2="299.5295" y2="79.9601" gradientTransform="matrix(1 0 0 -1 194 1104)">
	<stop  offset="3.800000e-02" style="stop-color:#A000FF"/>
	<stop  offset="1" style="stop-color:#3E1668"/>
</linearGradient>
<path style="fill:url(#SVGID_00000099643037455935104640000017398306951929342396_);" d="M189.6,686.9v298.9c0,1.4,1.1,2.5,2.5,2.5
	l619.4-6.3c1.4,0,2.5-1.1,2.5-2.5V680.9c0-2-2.2-3.2-3.9-2c-20.3,14.1-120.7,76.6-307.6,76.6c-187.1,0-288.9-57.7-309.1-70.6
	C191.8,683.8,189.6,685,189.6,686.9z"/>
<linearGradient id="SVGID_00000012446484919296332400000013631294951080289694_" gradientUnits="userSpaceOnUse" x1="144.2772" y1="507.667" x2="125.5435" y2="76.8045" gradientTransform="matrix(1 0 0 -1 194 1104)">
	<stop  offset="3.800000e-02" style="stop-color:#A000FF"/>
	<stop  offset="1" style="stop-color:#3E1668"/>
</linearGradient>
<path style="fill:url(#SVGID_00000012446484919296332400000013631294951080289694_);" d="M349,746.8h-29.4V631l26.4-4.6L349,746.8z"
	/>
<linearGradient id="SVGID_00000083060630602437807430000013032464857618497936_" gradientUnits="userSpaceOnUse" x1="513.9819" y1="483.6012" x2="496.275" y2="76.3394" gradientTransform="matrix(1 0 0 -1 194 1104)">
	<stop  offset="3.800000e-02" style="stop-color:#A000FF"/>
	<stop  offset="1" style="stop-color:#3E1668"/>
</linearGradient>
<path style="fill:url(#SVGID_00000083060630602437807430000013032464857618497936_);" d="M720,746.8h-29.4l-0.5-115l31.1,3.9
	L720,746.8z"/>
</svg>
