<?xml version="1.0" encoding="utf-8"?>
<!-- Generator: Adobe Illustrator 26.0.1, SVG Export Plug-In . SVG Version: 6.00 Build 0)  -->
<svg version="1.0" id="Layer_1" xmlns="http://www.w3.org/2000/svg" xmlns:xlink="http://www.w3.org/1999/xlink" x="0px" y="0px"
	 viewBox="0 0 1000 1000" style="enable-background:new 0 0 1000 1000;" xml:space="preserve">
<style type="text/css">
	.st0{fill:#4285F4;}
	.st1{fill:#34A853;}
	.st2{fill:#FBBC05;}
	.st3{fill:#EB4335;}
</style>
<path class="st0" d="M987.45,511.11c0-39.97-3.32-69.14-10.51-99.38H509.88v180.4h274.16c-5.52,44.83-35.37,112.35-101.7,157.72
	l-0.93,6.04l147.68,111.79l10.23,1C933.27,783.88,987.45,659.11,987.45,511.11z"/>
<path class="st1" d="M509.84,986.43c134.3,0,247.05-43.21,329.4-117.75L682.28,749.85c-42,28.63-98.38,48.61-172.44,48.61
	c-131.54,0-243.18-84.8-282.98-202.01l-5.83,0.48L67.48,713.07l-2.01,5.46C147.27,877.32,315.29,986.43,509.84,986.43z"/>
<path class="st2" d="M226.87,596.46c-10.5-30.25-16.58-62.66-16.58-96.14c0-33.49,6.08-65.9,16.03-96.14l-0.28-6.44L70.56,279.73
	l-5.09,2.36c-33.72,65.9-53.06,139.9-53.06,218.21s19.35,152.31,53.06,218.21L226.87,596.46z"/>
<path class="st3" d="M509.91,202.16c93.42,0,156.43,39.43,192.36,72.38l140.41-133.95C756.45,62.27,644.23,14.2,509.91,14.2
	c-194.58,0-362.62,109.1-444.43,267.9l160.86,122.07C266.69,286.96,378.35,202.16,509.91,202.16z"/>
</svg>
