<?xml version="1.0" encoding="utf-8"?>
<!-- Generator: Adobe Illustrator 26.0.1, SVG Export Plug-In . SVG Version: 6.00 Build 0)  -->
<svg version="1.0" id="Layer_1" xmlns="http://www.w3.org/2000/svg" xmlns:xlink="http://www.w3.org/1999/xlink" x="0px" y="0px"
	 viewBox="0 0 1000 1000" style="enable-background:new 0 0 1000 1000;" xml:space="preserve">
<style type="text/css">
	.st0{fill:#32E0C4;}
</style>
<path class="st0" d="M938.03,32.8H821.25c-15.49,0-30.34,6.15-41.29,17.1c-10.95,10.95-17.1,25.8-17.1,41.29
	c0,15.49,6.15,30.34,17.1,41.29c10.95,10.95,25.8,17.1,41.29,17.1h58.38v700.65h-58.38c-15.49,0-30.34,6.15-41.29,17.1
	c-10.95,10.95-17.1,25.8-17.1,41.29c0,15.49,6.15,30.34,17.1,41.29c10.95,10.95,25.8,17.1,41.29,17.1h116.77
	c15.49,0,30.34-6.15,41.29-17.1s17.1-25.8,17.1-41.29V91.19c0-15.49-6.15-30.34-17.1-41.29S953.51,32.8,938.03,32.8z M517.63,231.32
	c-9.29-12.39-23.12-20.58-38.45-22.77c-15.33-2.19-30.9,1.8-43.29,11.09c-12.39,9.29-20.58,23.12-22.77,38.45
	c-2.19,15.33,1.8,30.9,11.09,43.29l105.1,140.13H62.21c-15.49,0-30.34,6.15-41.29,17.1c-10.95,10.95-17.1,25.8-17.1,41.29
	c0,15.49,6.15,30.33,17.1,41.28c10.95,10.95,25.8,17.1,41.29,17.1h472.35L434.14,700.75c-4.48,6.28-7.67,13.38-9.39,20.89
	c-1.72,7.51-1.94,15.3-0.63,22.9c1.3,7.6,4.1,14.87,8.22,21.38c4.13,6.52,9.5,12.15,15.82,16.57c9.92,6.93,21.76,10.6,33.87,10.51
	c9.26-0.04,18.38-2.29,26.6-6.55c8.22-4.27,15.32-10.42,20.69-17.97l164.65-233.55c7.31-10,11.25-22.07,11.25-34.45
	c0-12.39-3.94-24.45-11.25-34.45L517.63,231.32z"/>
</svg>
