<svg width="64" height="64" viewBox="0 0 64 64" fill="none" xmlns="http://www.w3.org/2000/svg">
<path d="M32 59C46.9117 59 59 46.9117 59 32C59 17.0883 46.9117 5 32 5C17.0883 5 5 17.0883 5 32C5 46.9117 17.0883 59 32 59Z" fill="#27AAE1"/>
<path d="M48.75 53.16C43.9861 56.9418 38.0825 59.0002 32 59.0002C25.9175 59.0002 20.0139 56.9418 15.25 53.16L16 50.5C16.5661 48.6123 17.7285 46.9587 19.3131 45.7869C20.8977 44.6152 22.8193 43.9882 24.79 44H39.21C41.1807 43.9882 43.1023 44.6152 44.6869 45.7869C46.2715 46.9587 47.4339 48.6123 48 50.5L48.75 53.16Z" fill="#002D6E"/>
<path d="M36 39V44.76C36.0017 45.1338 35.8986 45.5006 35.7024 45.8187C35.5062 46.1369 35.2248 46.3937 34.89 46.56C33.9928 47.0088 33.0033 47.2425 32 47.2425C30.9968 47.2425 30.0073 47.0088 29.11 46.56V46.56C28.7753 46.3937 28.4939 46.1369 28.2977 45.8187C28.1015 45.5006 27.9984 45.1338 28 44.76V39H36Z" fill="#FFD2B4"/>
<path opacity="0.2" d="M36 44V44.76C36.0017 45.1338 35.8986 45.5006 35.7024 45.8187C35.5062 46.1369 35.2247 46.3937 34.89 46.56C33.9923 47.0073 33.003 47.2401 32 47.2401C30.997 47.2401 30.0077 47.0073 29.11 46.56C28.7753 46.3937 28.4938 46.1369 28.2976 45.8187C28.1014 45.5006 27.9983 45.1338 28 44.76V44H26V44.76C26.0004 45.5042 26.2084 46.2335 26.6006 46.8659C26.9927 47.4983 27.5536 48.0088 28.22 48.34C29.3922 48.9316 30.687 49.2398 32 49.2398C33.313 49.2398 34.6078 48.9316 35.78 48.34C36.4464 48.0088 37.0073 47.4983 37.3994 46.8659C37.7916 46.2335 37.9996 45.5042 38 44.76V44H36Z" fill="white"/>
<path d="M32 15.21C43.45 15.21 42.47 26 42.47 26C44.15 25.83 45.47 26.49 45.47 28.86C45.47 31.23 44.47 31.72 43.12 31.86C43.0499 31.8647 42.984 31.8947 42.9343 31.9443C42.8846 31.994 42.8547 32.06 42.85 32.13C42.46 35.82 39.85 38.52 37.27 40.33C35.725 41.4198 33.8807 42.0049 31.99 42.0049C30.0993 42.0049 28.255 41.4198 26.71 40.33C24.14 38.52 21.52 35.81 21.13 32.13C21.1253 32.06 21.0954 31.994 21.0457 31.9443C20.9961 31.8947 20.9301 31.8647 20.86 31.86C19.55 31.73 18.51 31.23 18.51 28.86C18.51 26.49 19.78 25.86 21.45 26C21.47 26 20.54 15.21 32 15.21Z" fill="#FFD2B4"/>
<path opacity="0.1" d="M36 41.08V42.58C34.7534 43.1851 33.3857 43.4995 32 43.4995C30.6143 43.4995 29.2466 43.1851 28 42.58V41.08C29.2466 41.6851 30.6143 41.9995 32 41.9995C33.3857 41.9995 34.7534 41.6851 36 41.08V41.08Z" fill="#262234"/>
<path d="M28.04 29.85C28.9789 29.85 29.74 29.0889 29.74 28.15C29.74 27.2111 28.9789 26.45 28.04 26.45C27.1011 26.45 26.34 27.2111 26.34 28.15C26.34 29.0889 27.1011 29.85 28.04 29.85Z" fill="#262234"/>
<path d="M35.96 29.85C36.8989 29.85 37.66 29.0889 37.66 28.15C37.66 27.2111 36.8989 26.45 35.96 26.45C35.0211 26.45 34.26 27.2111 34.26 28.15C34.26 29.0889 35.0211 29.85 35.96 29.85Z" fill="#262234"/>
<path d="M35.87 32.53C36.0252 32.525 36.1795 32.5563 36.3206 32.6214C36.4617 32.6864 36.5857 32.7835 36.6827 32.9048C36.7798 33.0261 36.8472 33.1684 36.8797 33.3203C36.9122 33.4722 36.9089 33.6296 36.87 33.78C36.592 34.8522 35.9659 35.8017 35.0899 36.4796C34.2139 37.1574 33.1376 37.5252 32.03 37.5252C30.9223 37.5252 29.846 37.1574 28.97 36.4796C28.094 35.8017 27.4679 34.8522 27.19 33.78C27.151 33.6296 27.1477 33.4722 27.1802 33.3203C27.2127 33.1684 27.2802 33.0261 27.3772 32.9048C27.4743 32.7835 27.5982 32.6864 27.7393 32.6214C27.8804 32.5563 28.0347 32.525 28.19 32.53H35.87Z" fill="#611C24"/>
<path d="M34.42 36.91C33.6792 37.3198 32.8465 37.5347 32 37.5347C31.1534 37.5347 30.3207 37.3198 29.58 36.91C29.78 35.68 30.79 35.34 32 35.34C33.21 35.34 34.22 35.68 34.42 36.91Z" fill="#BE1E2D"/>
<path d="M34.87 32.53V33.48C34.8701 33.5765 34.8325 33.6691 34.7652 33.7382C34.698 33.8073 34.6064 33.8474 34.51 33.85H29.51C29.4136 33.8474 29.3221 33.8073 29.2548 33.7382C29.1876 33.6691 29.15 33.5765 29.15 33.48V32.53H34.87Z" fill="white"/>
<path d="M31.9999 13.63C23.1699 13.63 20.6899 20.34 20.6899 26.35C20.7135 27.0661 20.8175 27.7772 20.9999 28.47C21.1799 29.19 23.0699 29.16 23.1899 28.47C23.0777 26.1342 23.4558 23.8008 24.2999 21.62C24.3184 21.589 24.3384 21.559 24.3599 21.53C25.5868 22.7354 27.0465 23.6779 28.6499 24.3C28.7173 24.3289 28.7916 24.3377 28.8639 24.3253C28.9361 24.3129 29.0032 24.2798 29.0571 24.2302C29.1111 24.1805 29.1494 24.1163 29.1677 24.0453C29.1859 23.9743 29.1832 23.8995 29.1599 23.83C28.9668 23.2554 28.8032 22.6713 28.6699 22.08C29.9785 23.2848 31.53 24.1952 33.2199 24.75C33.2894 24.7774 33.3655 24.7837 33.4385 24.7681C33.5116 24.7526 33.5784 24.7158 33.6307 24.6625C33.683 24.6091 33.7184 24.5415 33.7325 24.4682C33.7466 24.3948 33.7387 24.3189 33.7099 24.25C33.5599 23.86 33.3699 23.36 33.2099 22.81C34.7813 23.8888 36.5885 24.5746 38.4799 24.81C38.5531 24.8239 38.6287 24.8161 38.6974 24.7874C38.7661 24.7588 38.8249 24.7105 38.8664 24.6488C38.908 24.587 38.9304 24.5144 38.9311 24.4399C38.9317 24.3655 38.9104 24.2925 38.8699 24.23C38.4993 23.6411 38.1653 23.03 37.8699 22.4C38.6853 22.7719 39.5364 23.06 40.4099 23.26C40.7974 24.9583 40.9688 26.6988 40.9199 28.44C41.0299 29.08 42.9199 29.11 43.1099 28.44C43.2755 27.7453 43.3627 27.0342 43.3699 26.32C43.3099 20.33 40.8399 13.63 31.9999 13.63Z" fill="#262234"/>
<path d="M31 14.9C28.7079 15.158 26.5817 16.2211 25 17.9C24.2958 17.0451 23.4898 16.2795 22.6 15.62C22.5402 15.5759 22.4946 15.5151 22.469 15.4453C22.4433 15.3755 22.4387 15.2997 22.4558 15.2273C22.4728 15.1549 22.5107 15.0891 22.5648 15.038C22.6189 14.987 22.6867 14.9529 22.76 14.94C23.6991 14.755 24.6529 14.6546 25.61 14.64C25.37 14.27 25.14 13.93 24.95 13.64C24.9046 13.5812 24.8775 13.5103 24.872 13.4362C24.8665 13.362 24.8828 13.2879 24.919 13.223C24.9552 13.1581 25.0096 13.1052 25.0756 13.0709C25.1415 13.0366 25.2161 13.0224 25.29 13.03C27.3259 13.134 29.2971 13.7795 31 14.9V14.9Z" fill="#262234"/>
</svg>
