<svg width="64" height="64" viewBox="0 0 64 64" fill="none" xmlns="http://www.w3.org/2000/svg">
<path d="M32 59C46.9117 59 59 46.9117 59 32C59 17.0883 46.9117 5 32 5C17.0883 5 5 17.0883 5 32C5 46.9117 17.0883 59 32 59Z" fill="#C49A6C"/>
<path d="M48.75 53.16C43.9861 56.9418 38.0825 59.0002 32 59.0002C25.9175 59.0002 20.0139 56.9418 15.25 53.16L16 50.5C16.5661 48.6123 17.7285 46.9587 19.3131 45.7869C20.8977 44.6152 22.8193 43.9882 24.79 44H39.21C41.1807 43.9882 43.1023 44.6152 44.6869 45.7869C46.2715 46.9587 47.4339 48.6123 48 50.5L48.75 53.16Z" fill="#3C2415"/>
<path d="M32 15.21C43.45 15.21 42.47 26 42.47 26C44.15 25.83 45.47 26.49 45.47 28.86C45.47 31.23 44.47 31.72 43.12 31.86C43.0499 31.8647 42.984 31.8947 42.9343 31.9443C42.8846 31.994 42.8547 32.06 42.85 32.13C42.46 35.82 39.85 38.52 37.27 40.33C35.725 41.4198 33.8807 42.0049 31.99 42.0049C30.0993 42.0049 28.255 41.4198 26.71 40.33C24.14 38.52 21.52 35.81 21.13 32.13C21.1253 32.06 21.0954 31.994 21.0457 31.9443C20.9961 31.8947 20.9301 31.8647 20.86 31.86C19.55 31.73 18.51 31.23 18.51 28.86C18.51 26.49 19.78 25.86 21.45 26C21.47 26 20.54 15.21 32 15.21Z" fill="#A7613B"/>
<path d="M36 39V44.76C36.0017 45.1338 35.8986 45.5006 35.7024 45.8187C35.5062 46.1369 35.2248 46.3937 34.89 46.56C33.9928 47.0088 33.0033 47.2425 32 47.2425C30.9968 47.2425 30.0073 47.0088 29.11 46.56V46.56C28.7753 46.3937 28.4939 46.1369 28.2977 45.8187C28.1015 45.5006 27.9984 45.1338 28 44.76V39H36Z" fill="#A7613B"/>
<path opacity="0.2" d="M36 44V44.76C36.0017 45.1338 35.8986 45.5006 35.7024 45.8187C35.5062 46.1369 35.2247 46.3937 34.89 46.56C33.9923 47.0073 33.003 47.2401 32 47.2401C30.997 47.2401 30.0077 47.0073 29.11 46.56C28.7753 46.3937 28.4938 46.1369 28.2976 45.8187C28.1014 45.5006 27.9983 45.1338 28 44.76V44H26V44.76C26.0004 45.5042 26.2084 46.2335 26.6006 46.8659C26.9927 47.4983 27.5536 48.0088 28.22 48.34C29.3922 48.9316 30.687 49.2398 32 49.2398C33.313 49.2398 34.6078 48.9316 35.78 48.34C36.4464 48.0088 37.0073 47.4983 37.3994 46.8659C37.7916 46.2335 37.9996 45.5042 38 44.76V44H36Z" fill="white"/>
<path opacity="0.1" d="M36 41.08V42.58C34.7534 43.1851 33.3857 43.4995 32 43.4995C30.6143 43.4995 29.2466 43.1851 28 42.58V41.08C29.2466 41.6851 30.6143 41.9995 32 41.9995C33.3857 41.9995 34.7534 41.6851 36 41.08V41.08Z" fill="#262234"/>
<path d="M28.04 29.85C28.9789 29.85 29.74 29.0889 29.74 28.15C29.74 27.2111 28.9789 26.45 28.04 26.45C27.1011 26.45 26.34 27.2111 26.34 28.15C26.34 29.0889 27.1011 29.85 28.04 29.85Z" fill="#3C2415"/>
<path d="M35.96 29.85C36.8989 29.85 37.66 29.0889 37.66 28.15C37.66 27.2111 36.8989 26.45 35.96 26.45C35.0211 26.45 34.26 27.2111 34.26 28.15C34.26 29.0889 35.0211 29.85 35.96 29.85Z" fill="#3C2415"/>
<path d="M35.87 32.53C36.0252 32.525 36.1795 32.5563 36.3206 32.6214C36.4617 32.6864 36.5857 32.7835 36.6827 32.9048C36.7798 33.0261 36.8472 33.1684 36.8797 33.3203C36.9122 33.4722 36.9089 33.6296 36.87 33.78C36.592 34.8522 35.9659 35.8017 35.0899 36.4796C34.2139 37.1574 33.1376 37.5252 32.03 37.5252C30.9223 37.5252 29.846 37.1574 28.97 36.4796C28.094 35.8017 27.4679 34.8522 27.19 33.78C27.151 33.6296 27.1477 33.4722 27.1802 33.3203C27.2127 33.1684 27.2802 33.0261 27.3772 32.9048C27.4743 32.7835 27.5982 32.6864 27.7393 32.6214C27.8804 32.5563 28.0347 32.525 28.19 32.53H35.87Z" fill="#611C24"/>
<path d="M34.42 36.91C33.6792 37.3198 32.8465 37.5347 32 37.5347C31.1534 37.5347 30.3207 37.3198 29.58 36.91C29.78 35.68 30.79 35.34 32 35.34C33.21 35.34 34.22 35.68 34.42 36.91Z" fill="#BE1E2D"/>
<path d="M34.87 32.53V33.48C34.8701 33.5765 34.8325 33.6691 34.7652 33.7382C34.698 33.8073 34.6064 33.8474 34.51 33.85H29.51C29.4136 33.8474 29.3221 33.8073 29.2548 33.7382C29.1876 33.6691 29.15 33.5765 29.15 33.48V32.53H34.87Z" fill="white"/>
<path d="M44.2601 25C44.2571 24.7354 44.1645 24.4795 43.9974 24.2743C43.8303 24.0691 43.5986 23.9265 43.3401 23.87C43.6069 23.7815 43.8333 23.6007 43.9787 23.3601C44.124 23.1195 44.1787 22.835 44.1329 22.5576C44.0871 22.2803 43.9437 22.0284 43.7287 21.8474C43.5137 21.6663 43.2411 21.568 42.9601 21.57H42.9101C43.149 21.4532 43.3415 21.259 43.4562 21.019C43.571 20.7791 43.6013 20.5074 43.5422 20.248C43.4832 19.9887 43.3382 19.7569 43.1309 19.5902C42.9236 19.4236 42.666 19.3319 42.4001 19.33C42.5986 19.1148 42.7092 18.8329 42.7101 18.54C42.7101 18.3837 42.6793 18.229 42.6195 18.0846C42.5597 17.9402 42.472 17.8091 42.3615 17.6986C42.251 17.588 42.1198 17.5004 41.9754 17.4406C41.8311 17.3808 41.6763 17.35 41.5201 17.35C41.4005 17.3551 41.2824 17.3788 41.1701 17.42C41.3147 17.2261 41.3951 16.9919 41.4001 16.75C41.4001 16.4344 41.2747 16.1317 41.0515 15.9085C40.8283 15.6854 40.5257 15.56 40.2101 15.56C40.0094 15.5631 39.813 15.6183 39.6401 15.72C39.6867 15.5984 39.7137 15.4701 39.7201 15.34C39.7201 15.0058 39.5873 14.6853 39.351 14.4491C39.1147 14.2128 38.7942 14.08 38.4601 14.08C38.1485 14.0806 37.8487 14.1984 37.6201 14.41C37.6451 14.3286 37.6619 14.2448 37.6701 14.16C37.671 13.894 37.5916 13.634 37.4422 13.4139C37.2928 13.1938 37.0804 13.024 36.8329 12.9267C36.5853 12.8294 36.3142 12.8092 36.0549 12.8687C35.7957 12.9281 35.5604 13.0646 35.3801 13.26C35.3345 13.005 35.2166 12.7686 35.0404 12.5788C34.8642 12.389 34.6371 12.2538 34.3862 12.1895C34.1354 12.1252 33.8713 12.1345 33.6255 12.2161C33.3797 12.2978 33.1626 12.4484 33.0001 12.65C32.8743 12.4971 32.7163 12.374 32.5374 12.2895C32.3584 12.205 32.163 12.1611 31.9651 12.1611C31.7671 12.1611 31.5717 12.205 31.3927 12.2895C31.2138 12.374 31.0558 12.4971 30.9301 12.65C30.7648 12.4511 30.546 12.3038 30.2995 12.2257C30.053 12.1476 29.7893 12.1419 29.5396 12.2093C29.29 12.2767 29.065 12.4144 28.8913 12.606C28.7177 12.7975 28.6027 13.035 28.5601 13.29C28.3797 13.0945 28.1444 12.9581 27.8852 12.8987C27.6259 12.8392 27.3548 12.8594 27.1072 12.9567C26.8597 13.054 26.6473 13.2238 26.4979 13.4439C26.3485 13.664 26.2691 13.924 26.2701 14.19C26.2782 14.2748 26.295 14.3586 26.3201 14.44C26.0914 14.2284 25.7916 14.1106 25.4801 14.11C25.1459 14.11 24.8254 14.2428 24.5891 14.4791C24.3528 14.7153 24.2201 15.0358 24.2201 15.37C24.2264 15.5001 24.2534 15.6284 24.3001 15.75C24.1271 15.6483 23.9307 15.5931 23.7301 15.59C23.4144 15.59 23.1118 15.7154 22.8886 15.9386C22.6654 16.1617 22.5401 16.4644 22.5401 16.78C22.545 17.0219 22.6254 17.2561 22.7701 17.45C22.6577 17.4088 22.5396 17.3851 22.4201 17.38C22.1044 17.38 21.8018 17.5054 21.5786 17.7285C21.3554 17.9517 21.2301 18.2544 21.2301 18.57C21.2309 18.8629 21.3415 19.1448 21.5401 19.36C21.2741 19.3619 21.0165 19.4536 20.8092 19.6202C20.6019 19.7869 20.4569 20.0187 20.3979 20.278C20.3388 20.5374 20.3692 20.8091 20.4839 21.049C20.5986 21.289 20.7911 21.4832 21.0301 21.6H21.0001C20.719 21.598 20.4464 21.6963 20.2314 21.8774C20.0164 22.0584 19.873 22.3103 19.8272 22.5876C19.7814 22.865 19.8361 23.1495 19.9814 23.3901C20.1268 23.6307 20.3532 23.8115 20.6201 23.9C20.3597 23.9549 20.1262 24.0977 19.9586 24.3043C19.791 24.511 19.6996 24.769 19.6996 25.035C19.6996 25.3011 19.791 25.559 19.9586 25.7657C20.1262 25.9723 20.3597 26.1151 20.6201 26.17C20.6201 26.24 20.6201 26.3 20.6201 26.37C20.6679 27.082 20.7954 27.7864 21.0001 28.47C21.1801 29.19 23.0701 29.16 23.1901 28.47C23.3101 27.78 22.8301 24.16 24.6601 20.89C29.4392 22.575 34.6509 22.575 39.4301 20.89C41.2601 24.16 40.8101 27.89 40.9001 28.47C40.9901 29.05 42.9001 29.14 43.0901 28.47C43.2556 27.7753 43.3428 27.0642 43.3501 26.35C43.3501 26.28 43.3501 26.22 43.3501 26.15C43.6101 26.0907 43.8421 25.9444 44.0076 25.7353C44.1731 25.5261 44.2622 25.2667 44.2601 25V25Z" fill="#3C2415"/>
</svg>
