<?xml version="1.0" encoding="utf-8"?>
<!-- Generator: Adobe Illustrator 26.0.1, SVG Export Plug-In . SVG Version: 6.00 Build 0)  -->
<svg version="1.1" id="Layer_1" xmlns="http://www.w3.org/2000/svg" xmlns:xlink="http://www.w3.org/1999/xlink" x="0px" y="0px"
	 viewBox="0 0 1000 1000" style="enable-background:new 0 0 1000 1000;" xml:space="preserve">
<style type="text/css">
	.st0{clip-path:url(#SVGID_00000158710867037508362040000002068299107725843901_);}
	.st1{fill-rule:evenodd;clip-rule:evenodd;fill:#FFFFFF;}
	.st2{fill-rule:evenodd;clip-rule:evenodd;fill:#32E0C4;}
	.st3{fill:#E7E7E7;}
</style>
<g>
	<defs>
		<rect id="SVGID_1_" width="1000" height="1000"/>
	</defs>
	<clipPath id="SVGID_00000124869254850321109810000003229715597203189429_">
		<use xlink:href="#SVGID_1_"  style="overflow:visible;"/>
	</clipPath>
	<g style="clip-path:url(#SVGID_00000124869254850321109810000003229715597203189429_);">
		<path class="st1" d="M790.1,482.9c-27.2,0-53.2,10.8-72.4,30c-19.2,19.2-30,45.2-30,72.4c0,73,0,178.4,0,255.9
			c0,22.6-9,44.3-25,60.3s-37.7,25-60.3,25c-53,0-117.6,0-170.6,0c-47.1,0-85.3-38.2-85.3-85.3V721.8c0-9.4-7.6-17.1-17.1-17.1
			s-17.1,7.6-17.1,17.1v119.4c0,66,53.5,119.4,119.4,119.4c53,0,117.6,0,170.6,0c31.7,0,62.1-12.6,84.5-35
			c22.4-22.4,35-52.8,35-84.5c0-77.6,0-182.9,0-255.9c0-18.1,7.2-35.5,20-48.3s30.2-20,48.3-20c37.7,0,68.2,30.5,68.2,68.2v51.2
			c0,9.4,7.6,17.1,17.1,17.1s17.1-7.6,17.1-17.1v-51.2C892.4,528.8,846.6,482.9,790.1,482.9z M585.3,363.5V124.6
			c0-47.1-38.2-85.3-85.3-85.3c-26.8,0-51.2,0-51.2,0c-9.4,0-17.1,7.6-17.1,17.1s7.6,17.1,17.1,17.1c0,0,24.4,0,51.2,0
			c28.3,0,51.2,22.9,51.2,51.2v238.9c0,9.4,7.6,17.1,17.1,17.1S585.3,372.9,585.3,363.5z M107.6,363.5V124.6
			c0-28.3,22.9-51.2,51.2-51.2h51.2c9.4,0,17.1-7.6,17.1-17.1s-7.6-17.1-17.1-17.1c0,0-24.4,0-51.2,0c-47.1,0-85.3,38.2-85.3,85.3
			v238.9c0,9.4,7.6,17.1,17.1,17.1S107.6,372.9,107.6,363.5z"/>
		<path class="st2" d="M278.2,649.1v72.8c0,9.4,7.6,17.1,17.1,17.1h68.2c9.4,0,17.1-7.6,17.1-17.1v-72.8
			c135.7-24.2,238.9-142.9,238.9-285.6c0-9.4-7.6-17.1-17.1-17.1h-68.2c-9.4,0-17.1,7.6-17.1,17.1c0,103.6-84.1,187.7-187.7,187.7
			s-187.7-84.1-187.7-187.7c0-9.4-7.6-17.1-17.1-17.1H56.4c-9.4,0-17.1,7.6-17.1,17.1C39.3,506.1,142.5,624.8,278.2,649.1
			L278.2,649.1z"/>
		<path class="st3" d="M875.4,790.1c47.1,0,85.3-38.2,85.3-85.3s-38.2-85.3-85.3-85.3s-85.3,38.2-85.3,85.3S828.3,790.1,875.4,790.1
			z"/>
		<path class="st1" d="M875.4,619.4c-47.1,0-85.3,38.2-85.3,85.3s38.2,85.3,85.3,85.3s85.3-38.2,85.3-85.3S922.5,619.4,875.4,619.4z
			 M875.4,653.6c28.3,0,51.2,22.9,51.2,51.2s-22.9,51.2-51.2,51.2s-51.2-22.9-51.2-51.2S847.1,653.6,875.4,653.6z"/>
	</g>
</g>
</svg>
