<svg width="1000" height="1000" viewBox="0 0 1000 1000" fill="none" xmlns="http://www.w3.org/2000/svg">
<g clip-path="url(#clip0_95_3)">
<path fill-rule="evenodd" clip-rule="evenodd" d="M790.062 482.938C762.899 482.938 736.862 493.721 717.683 512.933C698.471 532.112 687.688 558.149 687.688 585.312C687.688 658.34 687.688 763.684 687.688 841.25C687.688 863.875 678.713 885.578 662.708 901.583C646.703 917.588 625 926.562 602.375 926.562C549.345 926.562 484.78 926.562 431.75 926.562C384.623 926.562 346.438 888.377 346.438 841.25V721.812C346.438 712.394 338.793 704.75 329.375 704.75C319.957 704.75 312.312 712.394 312.312 721.812V841.25C312.312 907.214 365.786 960.688 431.75 960.688C484.78 960.688 549.345 960.688 602.375 960.688C634.043 960.688 664.448 948.095 686.834 925.709C709.22 903.289 721.812 872.918 721.812 841.25C721.812 763.684 721.812 658.34 721.812 585.312C721.812 567.226 729.013 549.857 741.81 537.06C754.607 524.263 771.976 517.062 790.062 517.062C827.771 517.062 858.312 547.604 858.312 585.312V636.5C858.312 645.918 865.957 653.562 875.375 653.562C884.793 653.562 892.438 645.918 892.438 636.5V585.312C892.438 528.767 846.608 482.938 790.062 482.938ZM585.312 363.5V124.625C585.312 77.4984 547.127 39.3125 500 39.3125C473.246 39.3125 448.812 39.3125 448.812 39.3125C439.394 39.3125 431.75 46.9565 431.75 56.375C431.75 65.7935 439.394 73.4375 448.812 73.4375C448.812 73.4375 473.246 73.4375 500 73.4375C528.256 73.4375 551.188 96.3695 551.188 124.625V363.5C551.188 372.918 558.832 380.562 568.25 380.562C577.668 380.562 585.312 372.918 585.312 363.5ZM107.562 363.5V124.625C107.562 96.3695 130.494 73.4375 158.75 73.4375H209.938C219.356 73.4375 227 65.7935 227 56.375C227 46.9565 219.356 39.3125 209.938 39.3125C209.938 39.3125 185.504 39.3125 158.75 39.3125C111.623 39.3125 73.4375 77.4984 73.4375 124.625V363.5C73.4375 372.918 81.0815 380.562 90.5 380.562C99.9185 380.562 107.562 372.918 107.562 363.5Z" fill="#747474"/>
<path fill-rule="evenodd" clip-rule="evenodd" d="M278.188 649.058V721.812C278.188 731.231 285.832 738.875 295.25 738.875H363.5C372.918 738.875 380.562 731.231 380.562 721.812V649.058C516.278 624.829 619.438 506.108 619.438 363.5C619.438 354.082 611.793 346.438 602.375 346.438H534.125C524.707 346.438 517.062 354.082 517.062 363.5C517.062 467.104 432.979 551.188 329.375 551.188C225.771 551.188 141.688 467.104 141.688 363.5C141.688 354.082 134.043 346.438 124.625 346.438H56.375C46.9565 346.438 39.3125 354.082 39.3125 363.5C39.3125 506.108 142.472 624.829 278.188 649.058V649.058Z" fill="#32E0C4"/>
<path d="M875.375 790.062C922.492 790.062 960.688 751.867 960.688 704.75C960.688 657.633 922.492 619.438 875.375 619.438C828.258 619.438 790.062 657.633 790.062 704.75C790.062 751.867 828.258 790.062 875.375 790.062Z" fill="#E7E7E7"/>
<path fill-rule="evenodd" clip-rule="evenodd" d="M875.375 619.438C828.283 619.438 790.062 657.658 790.062 704.75C790.062 751.842 828.283 790.062 875.375 790.062C922.467 790.062 960.688 751.842 960.688 704.75C960.688 657.658 922.467 619.438 875.375 619.438ZM875.375 653.562C903.631 653.562 926.562 676.494 926.562 704.75C926.562 733.006 903.631 755.938 875.375 755.938C847.119 755.938 824.188 733.006 824.188 704.75C824.188 676.494 847.119 653.562 875.375 653.562Z" fill="#747474"/>
</g>
<defs>
<clipPath id="clip0_95_3">
<rect width="1000" height="1000" fill="white"/>
</clipPath>
</defs>
</svg>
