<?xml version="1.0" encoding="utf-8"?>
<!-- Generator: Adobe Illustrator 26.0.1, SVG Export Plug-In . SVG Version: 6.00 Build 0)  -->
<svg version="1.1" id="Layer_1" xmlns="http://www.w3.org/2000/svg" xmlns:xlink="http://www.w3.org/1999/xlink" x="0px" y="0px"
	 viewBox="0 0 1000 1000" style="enable-background:new 0 0 1000 1000;" xml:space="preserve">
<style type="text/css">
	.st0{fill:#FFFFFF;}
	.st1{fill:#3B434F;}
	.st2{fill-rule:evenodd;clip-rule:evenodd;fill:#3B434F;}
	.st3{fill:#C1BFBD;}
	.st4{opacity:0.2;fill-rule:evenodd;clip-rule:evenodd;fill:#3B434F;enable-background:new    ;}
	.st5{fill:#F5F3EF;}
	.st6{fill:#F4F3EF;}
</style>
<path class="st0" d="M197.4,972.2c0,0-23-201.6,175.1-224.1h84.8v-39c0,0,59.6,25.6,120,2.9l1.9,36.2h99c0,0,172.5,17.2,162,224.1
	H197.4z"/>
<path class="st1" d="M838.5,975.7h-635h-12.3l3.1-52.5c6-102.5,86.8-180.8,179.2-180.8h83.7v10.5h-78.1c-89.1,0-167,75.3-172.8,174
	l-2.1,36.4h632.6l-1.2-36.4c-5.8-98.7-83.6-174-172.8-174h-79v-10.5h84.1c92.5,0,173.2,78.3,179.2,180.8l3.1,52.5H838.5z"/>
<path class="st1" d="M463.9,704.7v58.7c0,30.5,24.7,55.2,55.2,55.2s55.2-24.7,55.2-55.2v-57.5c3.2-1,6.4-2,9.5-3.2v61.1
	c0,36-29.2,65.3-65.2,65.3s-65.2-29.2-65.2-65.3v-62.9C456.8,702.3,460.3,703.5,463.9,704.7z M690,868.4l-27,56.3
	c-1.4,2.8-4.8,4-7.6,2.7c-2.8-1.4-4-4.8-2.7-7.6l26-54.3l-20.4-35.3c-1.6-2.7-0.6-6.2,2.1-7.8c2.7-1.6,6.2-0.6,7.8,2.1l21.9,37.9
	C691.3,864.3,691.2,866.6,690,868.4z M347.7,868.4l27.1,56.4c1.4,2.9,4.8,4.1,7.7,2.7c2.9-1.4,4.1-4.8,2.7-7.6L359,865.4l20.5-35.4
	c1.6-2.7,0.6-6.2-2.1-7.8c-2.7-1.6-6.3-0.6-7.8,2.1l-22,38.1C346.4,864.3,346.5,866.7,347.7,868.4z"/>
<path class="st1" d="M453.4,740.5h10.5v231.4h-10.5V740.5z M574.3,742.4h10.5v231.4h-10.5V742.4z M492,853.9l26.8-29l29,29
	l-15.6,15.6L556.7,970h-75.9l26.8-100.4L492,853.9z"/>
<path class="st2" d="M551.6,971.5l-27-100.7l5.6-1.7l3.7-4l28.5,106.5L551.6,971.5z M475.4,970.3l28.2-104.7l1.8,1.6l5.7,3.8
	l1.9,0.2l-26.7,99.3L475.4,970.3z"/>
<path class="st2" d="M583.8,882.4l-7.4,7.4L547.6,861c-5.6,8.8-15.4,14.7-26.6,14.7c-11.7,0-21.8-6.4-27.2-15.8L463.7,890l-7.4-7.4
	l59.2-59.2l4.6-4.3l4.6,4.3L583.8,882.4z M499.6,854.1c3.8,7.7,11.7,13.1,20.9,13.1c9,0,16.8-5.1,20.7-12.5l-21.1-21.1L499.6,854.1z
	"/>
<path class="st0" d="M521.5,107.3c118.5,0,212,110.7,208.9,243.7l-3.2,141.4c-2.9,125.3-94.9,224.4-205.7,224.4
	s-202.8-99.1-205.7-224.4L312.5,351C309.5,218,403,107.3,521.5,107.3z"/>
<path class="st2" d="M739.9,346.6l-3.4,147.1c-3,130.4-99.5,233.5-215.5,233.5S308.5,624.1,305.5,493.7l-3.4-147.1
	C298.9,208.2,396.9,93,521,93S743.1,208.2,739.9,346.6z M520.5,108.2c-116.8,0-209.1,109.8-206.1,241.8l3.2,140.3
	c2.8,124.3,93.6,222.6,202.9,222.6c109.3,0,200.1-98.3,202.9-222.6l3.2-140.3C729.6,218.1,637.4,108.2,520.5,108.2z"/>
<path class="st1" d="M623.8,577.9c-17.3,15-56.4,29.3-101.9,29.3s-84.6-14.3-101.9-29.3c0,0-1.8-4.9,0.8-7.5
	c2.6-2.6,6.8-2.1,6.8-2.1c17.3,15,48.8,27.4,94.3,27.4c45.5,0,77-12.4,94.3-27.4c0,0,4.2-1.6,6.3,0.5
	C626.5,572.8,623.8,577.9,623.8,577.9z M490.5,630.1h60.9v9.5h-60.9V630.1z"/>
<path class="st0" d="M301.8,368.1c0,0-2.3-1.8-6.7-3.2c-2.2-0.7-4.9-1.2-8-1.4c-0.8,0-1.6,0-2.4,0c-0.8,0-1.6,0.1-2.5,0.2
	c-1.7,0.2-3.4,0.5-5.2,1c-7,2-14.2,6.9-18.4,17.1c-2.1,5.1-3.5,11.5-3.9,19.4c-0.1,2-0.1,4.1-0.1,6.3c0,2.2,0.1,4.5,0.3,6.9
	c0.4,4.8,1,10.1,2,15.8c0,0-0.9,17.3,5.3,37.3c5.8,19.5,19.8,43.4,45.7,50.3C305,468.2,304.9,417.8,301.8,368.1z"/>
<path class="st1" d="M304.8,370.1c0,0-45-14-43.4,32.3c0,0,6.7,67.1,9.6,73.3c0,0,17.7,39.1,46.9,40.8c28.5,1.7,0,0,0,0l0.4,12.6
	c0,0-51.3-6.6-61.2-65.7l-7.8-53.7c0,0-6.1-71.1,52.8-53c57.4,17.6,0,0,0,0L304.8,370.1z"/>
<path class="st1" d="M289.9,463.3c0,0-2.5,1.9-4.7,1.9c-2.2,0-4.7-1.9-4.7-1.9l-4.6-46.8c0,0,6.4-23.1,33.6-10.9l0.6,13.4
	c0,0-23.9-8.5-23.4,2.1C287.3,431.2,289.9,463.3,289.9,463.3z"/>
<path class="st0" d="M739.3,368.2c0,0,2.3-1.8,6.7-3.2c2.2-0.7,4.9-1.2,8-1.4c0.8,0,1.6,0,2.4,0c0.8,0,1.7,0.1,2.5,0.2
	c1.7,0.2,3.5,0.5,5.2,1c7.1,2,14.3,6.9,18.5,17.1c2.1,5.1,3.5,11.4,3.9,19.4c0.1,2,0.1,4.1,0.1,6.3s-0.2,4.5-0.3,6.9
	c-0.4,4.8-1,10.1-2,15.8c0,0,0.9,17.3-5.3,37.2c-5.9,19.5-19.9,43.4-45.9,50.2C736.1,468.2,736.2,417.9,739.3,368.2z"/>
<path class="st1" d="M736.3,370.2c0,0,45.2-13.9,43.6,32.3c0,0-6.7,67.1-9.7,73.3c0,0-17.8,39.1-47.1,40.8c-28.7,1.7,0,0,0,0
	l-0.4,12.6c0,0,51.5-6.6,61.5-65.6l7.9-53.7c0,0,6.1-71-53.1-53c-57.6,17.6,0,0,0,0L736.3,370.2z"/>
<path class="st1" d="M751.3,463.4c0,0,2.5,1.9,4.7,1.9c2.2,0,4.7-1.9,4.7-1.9l4.7-46.8c0,0-6.4-23-33.8-10.9l-0.6,13.4
	c0,0,24-8.5,23.5,2.1C753.9,431.3,751.3,463.4,751.3,463.4z M582,352.7c0,0,57-32.6,97.7,3.3l10.8,1.7c0,0-13.8-50.2-114.3-17.6
	l2.8,9.4L582,352.7z M581.3,349.5c0,0,58-33.3,96.2,8.8l19.7-0.6c0,0-24.6-53.6-125.4-19.8l9.5,13.8V349.5z M459.5,352.9
	c0,0-56.8-32.3-97.4,3.3l-10.7,1.7c0,0,13.8-49.8,113.9-17.4l-2.8,9.3L459.5,352.9z M460.2,349.7c0,0-57.8-33-95.9,8.7l-19.6-0.6
	c0,0,24.5-53.2,125-19.6l-9.5,13.7"/>
<path class="st3" d="M732.1,369.1c0,0,87.9-230.7-182.8-283.2c0,0-56.7-3.1-100.9-55.8c0,0-31.6,43.3-13.3,76.5
	c0,0-23.3,20.3-85.7,4.1c0,0-9.4,20.2-1.9,43.4c0,0-78.5,33.9-41.1,185.8c0.4,1.5,0.7,2.9,1.1,4.4c0,0,33.6-134.3,57.1-136.4
	c0,0,126.8,72.8,234.2-6.2c0,0,53,70.7,118.1,74.4C716.9,276.1,728.6,321.7,732.1,369.1z"/>
<path class="st2" d="M738.1,371c-2.6,7.2-11.4,4.8-11.4,4.8c-3.5-47.4-14.3-93.3-14.3-93.3c-65.9-8.3-115.2-71.4-115.2-71.4
	c-106.8,73.4-232.4,2.9-232.4,2.9c-25.2,20.9-50.5,131.4-50.5,131.4c-0.4-1.5-13,1.5-13.3,0c-37.4-151.8,39-194.3,39-194.3
	c-7.5-23.2,4.8-47.6,4.8-47.6c62.4,16.2,81.9,1.9,81.9,1.9c-16.5-41.3,20-83.8,20-83.8C491,74.3,551.5,79.7,551.5,79.7
	C800.4,129.5,755.8,323.2,738.1,371z M545.8,92c0,0-51-2.8-96.2-50.5c0,0-25.9,34.5-7.6,67.6c0,0-26.1,25.7-88.6,9.5
	c0,0-4.9,12.9,0,37.1c0,0-70,36.1-45.7,159c0.3,1.5-0.4-0.5,0,1c0,0,29.3-113.4,56.2-114.3c0,0,131.4,74.4,237.1-8.6
	c0,0,55.9,74.4,120.9,78.1c0,0,5.6,15.9,12.4,62.8C734.3,333.9,791.3,138.8,545.8,92z"/>
<path class="st4" d="M465.4,81.6c1.7,0,1.7,1.2,2.3,2.5c0.8,1.8,1.4,3.7,2.3,5.5c1.3,2.7,2.7,5.3,4.3,7.7c1.3,2,2.8,4,4.2,5.9
	c0.8,1.1,1.8,2.1,2.7,3.2c0.3,0.4,0.8,0.8,1.1,1.3c0.1,0.1,0.2,0.2,0.4,0.3c0.4,0.6,1,1,1.4,1.6c0.5,0.5,0.9,0.9,1.4,1.4
	c0.7,0.7,1.4,1.6,2.3,2.2c0.2,0.2,0.4,0.4,0.5,0.6c0.7,0.5,1.2,1.1,1.9,1.6c0.1,0.1,0.2,0.2,0.3,0.4c1,0.7,1.8,1.6,2.7,2.3
	c1.5,1.2,3,2.4,4.6,3.5c1.1,0.7,2.1,1.6,3.2,2.3c1.9,1.3,3.9,2.5,5.8,3.8c1.2,0.8,2.5,1.4,3.7,2.1c3.4,2.1,7.2,3.9,10.8,5.8
	c1.2,0.6,2.4,1.1,3.6,1.6c0.8,0.3,1.6,0.7,2.4,1.1c0.4,0.2,0.8,0.3,1.3,0.5c0.9,0.4,1.9,0.8,2.9,1.3c0.9,0.4,1.7,0.6,2.6,1
	c1,0.4,2,0.8,3,1.2c1.7,0.6,3.4,1.2,5.1,1.8c1.7,0.7,3.5,1.1,5.2,1.7c3.4,1.2,7.1,2,10.7,3.1c1.1,0.3,2.2,0.5,3.2,0.8
	c0.5,0.1,1.2,0.1,1.7,0.4c0.2,0.1,0.4,0.3,0.6,0.4c0.3,0.2,0.5,0.6,0.7,0.8c0.3,0.5,0.7,0.9,0.9,1.4c0.3,0.6,0.3,1.3,0.5,2
	c0.1,0.5,0,1.2-0.1,1.5c-0.1,0.3-0.1,0.5-0.1,0.8c-0.2,0.8-0.6,1.5-1,2.1c-0.5,0.6-1.6,0.6-2.5,0.4c-1.5-0.4-3.2-0.6-4.6-1
	c-0.3-0.1-0.6,0-0.9-0.1c-1.7-0.5-3.6-0.8-5.3-1.3c-0.4-0.1-0.7-0.1-1.1-0.2c-1.3-0.4-2.7-0.6-4.1-1.1c-3.4-1-6.9-1.9-10.1-3.1
	c-0.8-0.3-1.5-0.4-2.2-0.7c-5.3-2-10.6-3.9-15.5-6.4c-1.3-0.6-2.6-1.2-3.8-1.8c-3.5-1.9-7-3.9-10.3-6c-0.4-0.3-0.9-0.6-1.3-0.9
	c-1.9-1.3-3.8-2.6-5.7-4c-1.9-1.4-3.6-3-5.5-4.4c-0.4-0.3-0.7-0.7-1.1-1c-0.1-0.1-0.2-0.3-0.4-0.4c-0.4-0.3-0.8-0.8-1.2-1.1
	c-1-0.8-1.9-1.8-2.8-2.7c-0.8-0.8-1.8-1.7-2.5-2.6c-0.2-0.2-0.3-0.3-0.5-0.5c-0.5-0.6-1.1-1.1-1.5-1.8c-0.8-1.1-1.8-2-2.6-3.1
	c-1-1.3-2-2.7-3-4c-1-1.4-1.8-2.8-2.7-4.2c-2.4-3.9-4.4-8.1-6.3-12.6c-0.7-1.6-1.1-3.4-1.7-5.1c-0.4-1.2-0.6-2.5-0.9-3.7
	c-0.1-0.3-0.1-0.6-0.1-0.9c-0.2-0.7-0.4-1.5-0.1-2.2c0.1-0.3,0.6-0.8,0.9-0.9C465,81.6,465.2,81.7,465.4,81.6z M448.1,134.2
	c1.3,0,1.8,0.9,2.4,1.7c0.6,0.7,1.3,1.4,1.9,2.1c0.5,0.5,0.9,0.9,1.4,1.4c0.3,0.4,0.7,0.8,1.1,1.1c0.4,0.4,0.7,0.8,1.2,1.1
	c0.4,0.4,0.8,0.8,1.3,1.3c0.4,0.3,0.8,0.8,1.2,1.1c1.3,1,2.4,2.2,3.8,3.2c1.4,1,2.7,2.2,4.2,3.2c1.9,1.3,3.7,2.7,5.7,3.9
	c1,0.7,2,1.2,3,1.8c0.8,0.5,1.6,1,2.4,1.5c3.3,1.8,6.6,3.6,10.1,5.3c2.7,1.4,5.6,2.5,8.4,3.7c0.9,0.4,1.7,0.6,2.6,1
	c2,0.8,4.1,1.5,6.2,2.3c1.9,0.7,4,1.2,6,1.9c0.3,0.1,0.6,0.1,0.9,0.2c1,0.4,2.2,0.6,3.2,0.9c0.5,0.2,1.1,0.2,1.6,0.4
	c1.1,0.4,2.6,1.7,3,2.8c0.7,2-0.1,4.2-1,5.5c-0.3,0.4-0.7,1-1.2,1.2c-0.8,0.3-1.6,0-2.3-0.2c-0.9-0.3-1.8-0.3-2.6-0.6
	c-1.6-0.5-3.3-0.8-5-1.3c-3.4-1.1-6.8-2-10.1-3.2c-7.5-2.9-14.5-6.2-20.9-10.2c-2.7-1.7-5.2-3.5-7.7-5.3c-0.9-0.7-1.7-1.5-2.6-2.1
	c-1.2-0.9-2.2-2-3.4-2.9c-0.1-0.1-0.3-0.3-0.4-0.4c-0.2-0.2-0.5-0.4-0.7-0.6c-0.2-0.2-0.4-0.4-0.6-0.6c-0.4-0.3-0.8-0.8-1.2-1.2
	c-0.4-0.4-0.8-0.7-1.1-1.2c-0.3-0.2-0.5-0.5-0.8-0.7c-0.9-1.1-2-2.1-2.8-3.2c-0.2-0.3-0.5-0.5-0.7-0.8c-0.8-1.1-1.7-2.1-2.5-3.3
	c-0.9-1.3-1.8-2.6-2.7-3.9c-0.3-0.5-0.6-1.1-0.9-1.6c-0.4-0.6-0.6-1.2-1-1.8c-0.2-0.4-0.5-0.8-0.6-1.2c-0.1-0.4-0.2-1.2,0-1.6
	c0.2-0.3,0.5-0.7,0.8-0.8C447.7,134.3,448,134.4,448.1,134.2z M424.5,159.9c1.4,0,1.8,1.1,2.4,1.9c0.9,1.3,2,2.6,3,3.9
	c0.8,1,1.8,1.9,2.6,3c0.3,0.3,0.6,0.6,0.9,0.9c0.4,0.6,1.1,1.2,1.7,1.7c0.1,0.1,0.2,0.3,0.4,0.4c0.3,0.3,0.6,0.6,0.9,0.8
	c0.2,0.2,0.3,0.3,0.5,0.5c0.8,0.6,1.4,1.4,2.2,1.9c1.9,1.4,3.6,2.9,5.6,4.3c4.2,2.9,8.7,5.4,13.4,7.7c1.5,0.8,3.2,1.3,4.7,2.1
	c0.7,0.3,1.3,0.5,2,0.8c1.8,0.8,3.8,1.5,5.7,2.2c2.6,1,5.5,1.6,8.2,2.5c1,0.3,2,0.5,2.9,0.8c0.8,0.3,1.7,0.3,2.5,0.6
	c1.7,0.5,3.5,0.8,5.2,1.2c1,0.3,2,0.3,3,0.6c1.1,0.3,2.2,0.3,3.2,0.6c0.2,0,0.5,0,0.7,0.1c1.1,0.3,2.3,0.3,3.4,0.6
	c0.5,0.1,0.9,0,1.3,0.1c1.5,0.4,3.3,0.3,4.8,0.6c0.4,0.1,0.9,0.1,1.3,0.1c0.1,0,0.3,0,0.4,0c0.5,0.1,1.2,0.1,1.8,0.2
	c0.2,0,0.3,0,0.5,0c0.9,0.2,2,0.1,2.8,0.3c0.2,0,0.4,0,0.6,0c1.1,0.2,2.5,0,3.7,0.3c0.4,0,0.9,0,1.3,0c0.3,0.1,0.7,0,0.9,0
	c0.8,0.2,1.8,0,2.6,0.1c0.5,0.1,1.1-0.1,1.5,0c0.4,0.1,0.9,0,1.2,0c0.9,0,1.8,0,2.7,0c2.2,0,4.3-0.1,6.4-0.1c1,0,2.1-0.2,2.9,0.1
	c0.5,0.2,0.9,0.6,1.3,0.8c0.8,0.6,1.6,1.5,2,2.5c0.1,0.3,0.1,0.6,0.2,0.9c0.2,0.6,0.4,1.5,0.2,2.2c-0.1,0.5-0.2,1.1-0.4,1.6
	c-0.3,0.7-1,1-1.8,1.2c-0.3,0-0.6,0-0.9,0c-1.3,0.3-2.9,0-4.2,0.3c-0.3,0.1-0.6,0-0.8,0c-0.5,0-1,0-1.5,0c-0.5,0.1-1.1,0-1.6,0.1
	c-0.5,0.1-1,0.1-1.5,0.1c-0.2,0-0.4,0-0.6,0c-0.4,0.1-1,0.1-1.5,0.1c-0.7,0-1.4,0-2,0c-0.6,0.1-1.5,0-2.2,0c-0.6,0-1.3,0.1-1.8,0
	c-0.4,0-0.8,0-1.2,0c-0.8,0-1.7,0-2.4-0.1c-0.4,0-0.8,0-1.2,0c-0.7-0.1-1.6,0-2.3-0.1c-0.3,0-0.5,0-0.8,0c-0.5-0.1-1.2,0-1.7-0.1
	c-0.2,0-0.5,0-0.7,0c-0.4-0.1-0.9-0.1-1.3-0.1c-0.2,0-0.4,0-0.6,0c-1.3-0.3-2.8-0.1-4.1-0.4c-0.4,0-0.7,0-1.1-0.1
	c-1.7-0.4-3.5-0.3-5.1-0.7c-0.4-0.1-0.8,0-1.2-0.1c-1.5-0.4-3.1-0.5-4.6-0.8c-0.2-0.1-0.4,0-0.6-0.1c-0.7-0.2-1.5-0.3-2.2-0.5
	c-0.3-0.1-0.6,0-0.9-0.1c-2.4-0.7-4.8-1-7.2-1.8c-4.1-1.3-8.3-2.4-12.1-4.1c-0.8-0.4-1.7-0.6-2.5-1c-1.5-0.7-3-1.3-4.5-2
	c-2.3-1.1-4.5-2.4-6.7-3.6c-1.6-0.9-3-1.9-4.5-2.9c-1.2-0.8-2.4-1.6-3.5-2.4c-1.1-0.8-2.2-1.7-3.3-2.6c-1.1-0.8-2.1-1.9-3.3-2.8
	c-0.4-0.3-0.8-0.9-1.2-1.2c-1.1-0.8-1.9-1.9-2.9-2.8c-4-4-7.4-8.6-10.5-13.6c-0.7-1.1-1.2-2.3-1.8-3.6c-0.3-0.6-0.6-1.3-0.3-2.1
	c0.1-0.2,0.6-0.7,0.8-0.8C424.1,160,424.3,160,424.5,159.9z M657.4,194.5c1.3,0,1.7,0.9,2.2,1.6c0.5,0.7,1.1,1.4,1.7,2.2
	c1.2,1.6,2.6,2.9,3.8,4.5c0.4,0.5,1,1,1.4,1.5c0.2,0.2,0.3,0.3,0.5,0.5c0.6,0.8,1.3,1.4,2,2c0.6,0.6,1.1,1.1,1.7,1.7
	c0.9,0.7,1.6,1.6,2.5,2.3c0.5,0.4,0.9,0.9,1.4,1.3c1.7,1.2,3.2,2.7,4.9,3.9c2.5,1.9,5.1,3.7,7.7,5.5c4,2.6,8.2,5,12.5,7.3
	c2.4,1.3,5,2.4,7.5,3.7c0.9,0.4,1.8,0.8,2.7,1.2c0.3,0.2,0.6,0.2,0.9,0.4c1.4,0.7,2.9,1.2,4.3,1.8c0.4,0.2,0.7,0.2,1.1,0.4
	c1.4,0.5,2.8,1.1,4.3,1.6c0.8,0.3,1.7,0.4,2.5,0.8c1.8,1,3.5,3.2,2.6,6c-0.3,1-0.9,1.8-1.5,2.6c-0.4,0.5-0.9,0.8-1.6,1
	c-0.2,0.1-1-0.2-1.1-0.3c-1-0.4-1.9-0.5-2.9-0.8c-5-1.7-9.9-3.5-14.5-5.5c-7.5-3.3-14.3-7.5-20.6-11.9c-1.8-1.3-3.5-2.8-5.3-4.2
	c-0.5-0.4-1-0.9-1.5-1.3c-0.1-0.1-0.2-0.2-0.3-0.4c-0.7-0.5-1.3-1.2-2-1.8c-0.3-0.3-0.6-0.7-1-1c-0.4-0.3-0.6-0.6-1-0.9
	c-0.3-0.3-0.6-0.6-0.9-0.9c-0.2-0.2-0.4-0.4-0.7-0.6c-0.4-0.4-0.8-0.8-1.2-1.3c-0.2-0.2-0.4-0.4-0.6-0.6c-0.5-0.6-1-1.1-1.5-1.7
	c-1.2-1.5-2.4-3-3.6-4.6c-1-1.4-2.1-2.9-3.1-4.4c-1.2-1.9-2.3-3.9-3.4-6c-0.5-0.9-1-2-1.3-3c-0.1-0.4-0.2-1.2,0-1.6
	c0.2-0.3,0.5-0.7,0.8-0.8C657,194.6,657.2,194.6,657.4,194.5z"/>
<path class="st2" d="M538.6,459.6c1.1,0,2.2,0,3.3,0c6.9,9.4,9.7,23.7,13.3,36.2c1.1,3.9,0,10.6-1,13.3c-3.6,10-14.9,9.8-24.3,14.3
	c-2.5,1.2-4.4,3.3-7.6,3.8c-2.1-1.9-4.7-2.2-5.7-5.2c-2.6-3.5,0.7-5.8,3.3-7.1c4.7-2.5,19.2-5,20.9-9.5c2.1-2.4,0.7-9.8,0-12.4
	c-1.8-6.6-2.7-12.1-5.2-18.1c-1.7-4-4.6-8.1-2.9-12.9C534.3,461.4,537.4,460.7,538.6,459.6z"/>
<path class="st1" d="M416.2,378.7c10.5,0,19,8.5,19,19c0,10.5-8.5,19-19,19c-10.5,0-19-8.5-19-19
	C397.2,387.2,405.7,378.7,416.2,378.7z M627.6,378.7c10.5,0,19,8.5,19,19c0,10.5-8.5,19-19,19c-10.5,0-19-8.5-19-19
	C608.6,387.2,617.1,378.7,627.6,378.7z"/>
<path class="st5" d="M636.2,449.1c13.1,0,23.8,10.7,23.8,23.8s-10.7,23.8-23.8,23.8c-13.1,0-23.8-10.7-23.8-23.8
	S623.1,449.1,636.2,449.1z"/>
<path class="st6" d="M405.8,449.1c13.1,0,23.8,10.7,23.8,23.8s-10.7,23.8-23.8,23.8c-13.1,0-23.8-10.7-23.8-23.8
	S392.6,449.1,405.8,449.1z"/>
</svg>
